<svg width="48" height="46" viewBox="0 0 48 46" fill="none" xmlns="http://www.w3.org/2000/svg">
<g clip-path="url(#clip0_2007_38)">
<rect width="48" height="46" rx="5" fill="white"/>
<path d="M48 -7H-5V46H48V-7Z" fill="url(#paint0_linear_2007_38)"/>
<g filter="url(#filter0_f_2007_38)">
<path d="M18.8165 46.0081L18.319 39.9324C18.319 39.9324 7.02393 38.6251 5.98474 35.6917C4.94554 32.7583 7.10198 30.2785 7.10198 30.2785C7.10198 30.2785 4.66425 17.9756 9.00932 15.7829C12.4816 14.0306 13.8711 16.5958 15.6558 15.5232C17.4239 14.4606 23.17 10.8987 23.17 10.8987C23.17 10.8987 23.4035 10.2448 23.5782 8.8837C23.8325 6.90229 25.0982 6.77681 25.0982 6.77681C25.0982 6.77681 27.6718 6.00277 29.7257 7.58116C31.7797 9.15955 38.1145 11.776 38.1145 11.776C38.1145 11.776 40.8823 11.5943 41.9393 13.0249C42.9962 14.4556 42.7441 23.1105 40.4007 27.0864C38.1211 31.9799 35.4169 38.3776 36.5961 43.9088C37.1143 46.0081 37.166 46.0081 37.166 46.0081H18.8165Z" fill="url(#paint1_linear_2007_38)"/>
</g>
<path d="M18.8165 46.0081L18.319 39.9324C18.319 39.9324 7.02393 38.6251 5.98474 35.6917C4.94554 32.7583 7.10198 30.2785 7.10198 30.2785C7.10198 30.2785 4.66425 17.9756 9.00932 15.7829C12.4816 14.0306 13.8711 16.5958 15.6558 15.5232C17.4239 14.4606 23.17 10.8987 23.17 10.8987C23.17 10.8987 23.4035 10.2448 23.5782 8.8837C23.8325 6.90229 25.0982 6.77681 25.0982 6.77681C25.0982 6.77681 27.6718 6.00277 29.7257 7.58116C31.7797 9.15955 38.1145 11.776 38.1145 11.776C38.1145 11.776 40.8823 11.5943 41.9393 13.0249C42.9962 14.4556 42.7441 23.1105 40.4007 27.0864C38.1211 31.9799 35.4169 38.3776 36.5961 43.9088C37.1143 46.0081 37.166 46.0081 37.166 46.0081H18.8165Z" fill="url(#paint2_linear_2007_38)"/>
<g opacity="0.413858" filter="url(#filter1_f_2007_38)">
<path d="M11.3461 18.877C11.3461 18.877 7.41967 20.1424 6.41092 23.5603C5.40217 26.9783 7.1018 30.2784 7.1018 30.2784C7.1018 30.2784 8.68979 32.2177 11.3436 31.6182C13.9974 31.0186 16.9871 27.6084 17.1133 25.6353C17.2395 23.6622 16.8268 22.6493 16.8268 22.6493C16.8268 22.6493 15.8151 18.7456 11.3461 18.877Z" fill="url(#paint3_linear_2007_38)"/>
</g>
<path d="M11.3462 18.3576C11.3462 18.3576 7.87146 18.782 6.28413 22.8796C4.99682 26.2027 6.97501 29.5977 6.97501 29.5977C6.97501 29.5977 8.563 31.537 11.2168 30.9375C13.8706 30.3379 16.8603 26.9277 16.9865 24.9546C17.1128 22.9815 16.7 21.9686 16.7 21.9686C16.7 21.9686 15.3905 17.8244 11.3462 18.3576Z" fill="url(#paint4_linear_2007_38)"/>
<g opacity="0.467625" filter="url(#filter2_f_2007_38)">
<path d="M27.2529 9.93429C27.2529 9.93429 27.8577 14.3862 30.8129 15.6525C33.7681 16.9188 36.0639 16.8609 37.2672 16.5933C38.4705 16.3258 38.8661 15.4292 38.8661 15.4292C38.8661 15.4292 38.8902 13.1864 36.94 10.1526C36.7454 9.84993 36.5631 9.55934 36.1805 9.28169C33.4979 7.33481 29.1721 6.5851 27.2529 9.93429Z" fill="url(#paint5_linear_2007_38)"/>
</g>
<path d="M27.192 9.68286C27.192 9.68286 27.7982 14.0209 30.7602 15.2549C33.7222 16.4888 36.0233 16.4323 37.2294 16.1716C40.5051 15.3262 37.4474 10.7443 36.9014 9.89553C36.7064 9.60064 36.5161 9.41043 36.1402 9.04694C33.7746 6.75951 29.1156 6.4193 27.192 9.68286Z" fill="url(#paint6_linear_2007_38)"/>
<path d="M15.0411 23.5323C15.2641 23.5323 15.4448 23.2375 15.4448 22.8739C15.4448 22.5103 15.2641 22.2155 15.0411 22.2155C14.8182 22.2155 14.6375 22.5103 14.6375 22.8739C14.6375 23.2375 14.8182 23.5323 15.0411 23.5323Z" fill="white" fill-opacity="0.642697"/>
<path opacity="0.458934" d="M12.1343 18.3049C11.5172 18.3049 10.9062 18.4158 10.3361 18.6313C9.76607 18.8468 9.24809 19.1627 8.81177 19.561C8.37545 19.9592 8.02935 20.432 7.79321 20.9523C7.55708 21.4727 7.43554 22.0303 7.43555 22.5935C7.43555 23.1567 7.55708 23.7144 7.79322 24.2348C8.02935 24.7551 8.37546 25.2279 8.81177 25.6261C9.24809 26.0244 9.76608 26.3403 10.3362 26.5558C10.9062 26.7713 11.5172 26.8822 12.1343 26.8822C13.3804 26.8822 14.5755 26.4303 15.4566 25.626C16.3377 24.8218 16.8327 23.7309 16.8327 22.5935C16.8326 22.5334 16.8312 22.4734 16.8283 22.4133C16.7607 22.1187 16.7001 21.9686 16.7001 21.9686C16.7001 21.9686 15.9613 19.12 12.9598 18.3717C12.6873 18.3273 12.4111 18.3049 12.1343 18.3049Z" fill="url(#paint7_linear_2007_38)"/>
<g opacity="0.16829" filter="url(#filter3_f_2007_38)">
<path d="M8.77234 15.9054C8.67591 16.0002 8.38831 16.0932 8.48305 16.1896C8.57779 16.2861 8.87221 15.8143 8.77234 15.9054C8.7215 15.9518 7.92358 16.5255 8.10504 16.7863C8.21633 16.9463 8.45994 16.876 8.60648 16.821C8.93781 16.6968 9.18442 16.3842 9.51678 16.2482C9.83757 16.117 10.1879 16.2017 10.5235 16.1788C10.7435 16.1638 10.9192 16.1318 11.1407 16.1918C11.2708 16.2271 11.3917 16.3177 11.5187 16.3459C11.6984 16.3857 11.9158 16.3818 12.0857 16.463C12.3354 16.5824 12.5244 16.7793 12.7684 16.9035C12.9928 17.0176 13.7427 17.223 14.0066 17.2116C14.1229 17.2065 14.2811 17.1082 14.3923 17.0684C14.7339 16.9461 15.116 16.8932 15.4453 16.7364C15.9579 16.4924 16.405 16.1221 16.9535 15.9553C17.0199 15.9352 17.1284 15.8939 17.2004 15.8989C17.3589 15.9101 17.5274 15.9932 17.6903 16.0161C17.8732 16.0418 18.0972 16.0145 18.2727 16.0638C18.3883 16.0963 18.3612 16.2412 18.5427 16.2352C18.6209 16.2326 18.7203 16.1572 18.8011 16.1398C19.019 16.0926 19.2442 16.0583 19.4646 16.0291C20.3916 15.9064 21.4683 15.7684 22.4038 15.9119C22.9117 15.9898 23.76 16.0865 24.1318 16.5238C24.3029 16.725 24.0146 17.178 24.4173 17.4611C24.4498 17.484 24.4942 17.5532 24.5291 17.5652C24.6584 17.6097 24.8872 17.5197 25.0267 17.5197C25.484 17.5197 25.9302 17.5121 26.3883 17.4785C27.4833 17.3981 28.5818 17.3309 29.6785 17.3092C30.2459 17.298 30.8162 17.3976 31.3834 17.4199C31.9568 17.4424 32.5315 17.3881 33.1076 17.4047C33.4825 17.4155 33.8665 17.4829 34.2416 17.4741C35.1771 17.4522 36.0994 17.1577 37.0111 16.9816C37.8382 16.8218 39.0213 16.7054 39.6147 16.0378C39.676 15.9688 39.7712 15.9443 39.823 15.8642C40.219 15.2517 40.1819 14.833 40.2859 14.1502C40.3768 13.5537 40.5395 13.1922 40.0853 12.6813C40.0309 12.62 39.9458 12.4973 39.8655 12.4621C39.691 12.3858 39.4842 12.3723 39.3023 12.3211C38.6133 12.1273 37.6836 11.9641 37.0805 11.6094C36.6877 11.3784 36.2977 11.0886 35.8848 10.8978C35.1834 10.5737 34.4274 10.3309 33.744 9.97132C33.452 9.81764 33.2305 9.60836 32.9572 9.43541C32.534 9.1676 32.0425 8.91059 31.5609 8.76281C31.363 8.7021 31.1627 8.63664 30.9861 8.52631C30.8618 8.44863 30.7824 8.30559 30.6467 8.23774C30.5393 8.18403 30.4169 8.18287 30.3034 8.15095C30.1651 8.11207 30.0074 8.00287 29.8868 7.92747C29.7287 7.82862 29.6331 7.64305 29.4625 7.5608C28.6606 7.17417 27.8336 6.81949 26.9399 6.71896C26.6749 6.68915 26.3883 6.73564 26.1222 6.74716C25.5696 6.77107 25.1384 6.81016 24.614 7.00102C24.3368 7.10191 24.077 7.54997 23.9853 7.80814C23.9292 7.96582 23.9593 8.15257 23.9197 8.31585C23.8556 8.58034 23.6732 8.80645 23.615 9.06873C23.5296 9.45303 23.4367 9.8373 23.3565 10.2208C23.3191 10.3997 23.3992 10.6522 23.2948 10.8088C23.1442 11.0348 22.7854 11.1281 22.5581 11.2645C22.3214 11.4065 22.1508 11.6352 21.9178 11.7808C21.6382 11.9556 21.3414 12.1058 21.0692 12.2929C19.8244 13.1487 18.5838 14.0052 17.293 14.7989C16.8744 15.0562 16.49 15.3597 16.0432 15.5691C15.8456 15.6618 15.505 15.8654 15.2872 15.8707C15.1195 15.8748 14.9517 15.7648 14.7819 15.7536C13.8374 15.6911 12.9018 15.5264 11.9507 15.4715C11.2705 15.4323 10.5438 15.382 9.87165 15.5171C9.72292 15.5469 9.61962 15.6523 9.48207 15.7058C9.24421 15.7985 9.02426 15.8523 8.77234 15.9054Z" fill="white"/>
</g>
<path opacity="0.579546" d="M31.8828 7.76474C29.7508 7.76623 27.9169 9.12138 27.5034 11.0014C27.9812 12.5341 28.7992 14.2101 30.2749 14.9646C33.0417 15.9272 36.3497 13.8761 36.3499 11.7801C36.3499 9.56254 34.35 7.76479 31.8828 7.76474Z" fill="url(#paint8_linear_2007_38)"/>
<path d="M31.7679 14.2464C33.8152 14.2464 35.4748 12.9287 35.4748 11.3033C35.4748 9.6779 33.8152 8.36023 31.7679 8.36023C29.7207 8.36023 28.061 9.6779 28.061 11.3033C28.061 12.9287 29.7207 14.2464 31.7679 14.2464Z" fill="black"/>
<path d="M5.98462 35.6917C5.98462 35.6917 6.58306 34.5199 7.06624 34.5422C7.54943 34.5645 8.57368 35.0412 9.96425 34.7435C11.3548 34.4457 12.9463 33.3787 12.9463 33.3787L24.3161 24.8798C24.3161 24.8798 30.5417 19.6705 35.1053 19.1888C39.6689 18.707 40.9738 16.324 40.9738 16.324C40.9738 16.324 41.442 15.3034 41.0191 13.7045C40.5961 12.1057 41.9392 13.0249 41.9392 13.0249C41.9392 13.0249 42.9769 15.5071 42.6956 18.4046C42.467 20.7587 42.1823 23.6975 40.4007 27.0864C38.463 31.8 35.574 38.0329 36.4855 43.2755C36.8318 44.8462 37.1659 46.0081 37.1659 46.0081H19.8324L18.9712 40.1025L18.3188 39.9324C18.3188 39.9324 12.5363 39.0679 10.6272 38.4082C8.71816 37.7485 7.94414 37.4019 7.05531 36.8919C6.1986 36.4002 6.26701 36.2716 5.98462 35.6917Z" fill="url(#paint9_linear_2007_38)"/>
<path d="M12.2164 25.7111C14.2965 25.7111 15.9827 24.188 15.9827 22.3092C15.9827 20.4303 14.2965 18.9073 12.2164 18.9073C10.1363 18.9073 8.45007 20.4303 8.45007 22.3092C8.45007 24.188 10.1363 25.7111 12.2164 25.7111Z" fill="black"/>
<g filter="url(#filter4_f_2007_38)">
<path d="M12.5768 21.9342C13.271 21.9342 13.8338 21.3628 13.8338 20.6579C13.8338 19.953 13.271 19.3815 12.5768 19.3815C11.8825 19.3815 11.3197 19.953 11.3197 20.6579C11.3197 21.3628 11.8825 21.9342 12.5768 21.9342Z" fill="#A5A5A5"/>
</g>
<g opacity="0.94272" filter="url(#filter5_f_2007_38)">
<path d="M31.2244 10.971C31.9573 10.971 32.5515 10.4876 32.5515 9.89142C32.5515 9.29519 31.9573 8.81186 31.2244 8.81186C30.4914 8.81186 29.8972 9.29519 29.8972 9.89142C29.8972 10.4876 30.4914 10.971 31.2244 10.971Z" fill="#808080"/>
</g>
<g filter="url(#filter6_f_2007_38)">
<path d="M41.3025 12.9764C41.0719 12.9997 40.9187 13.217 41.1038 13.9165C41.5267 15.5154 41.0585 16.5362 41.0585 16.5362C41.0585 16.5362 39.7537 18.9191 35.1901 19.4009C30.6265 19.8827 24.4008 25.0919 24.4008 25.0919L13.031 33.5909C13.031 33.5909 11.4397 34.6578 10.0491 34.9555C8.65854 35.2532 7.6342 34.7768 7.15101 34.7544C6.66782 34.7321 6.06946 35.9039 6.06946 35.9039C6.17944 36.1297 6.23706 36.2866 6.316 36.4237C6.33256 36.3934 6.33157 36.3934 6.35791 36.3481C6.38973 36.2933 6.42823 36.2295 6.47179 36.1612C6.51535 36.0929 6.56403 36.0201 6.61653 35.9475C6.66903 35.875 6.72524 35.8028 6.78389 35.7352C6.81322 35.7014 6.84327 35.6688 6.87362 35.638C6.90396 35.6072 6.93464 35.5781 6.96565 35.5514C6.99666 35.5247 7.0279 35.5005 7.05923 35.4791C7.09056 35.4578 7.12202 35.4393 7.15332 35.4244C7.18462 35.4094 7.21572 35.3978 7.24664 35.3905C7.26211 35.387 7.27762 35.3843 7.29292 35.3827C7.30822 35.3812 7.32332 35.3808 7.33842 35.3813C7.36862 35.3827 7.40096 35.3857 7.43535 35.3905C7.46973 35.395 7.50612 35.4012 7.5446 35.4085C7.62157 35.4231 7.70678 35.4424 7.79963 35.464C7.89248 35.4856 7.99314 35.5097 8.10119 35.5335C8.20924 35.5572 8.32465 35.5809 8.44722 35.6021C8.50851 35.6127 8.57165 35.6226 8.63644 35.6317C8.70123 35.6407 8.76773 35.6487 8.83594 35.6556C8.90414 35.6624 8.97392 35.6682 9.04546 35.6723C9.11699 35.6763 9.19023 35.6792 9.26501 35.68C9.33979 35.681 9.41613 35.6796 9.49407 35.6765C9.57201 35.6735 9.65163 35.6683 9.73264 35.6606C9.81366 35.6529 9.89621 35.6426 9.98021 35.6298C10.0642 35.6169 10.1496 35.6013 10.2365 35.5827C10.3234 35.5641 10.4112 35.5426 10.4993 35.5184C10.5873 35.4942 10.6755 35.4676 10.7638 35.4387C10.8521 35.4099 10.9404 35.3788 11.0281 35.3462C11.1158 35.3136 11.2028 35.2793 11.289 35.2439C11.3752 35.2084 11.4605 35.1718 11.5443 35.1343C11.6281 35.0969 11.7105 35.0587 11.7911 35.0202C11.9523 34.9431 12.1061 34.8648 12.249 34.7888C12.3919 34.7128 12.5238 34.6391 12.6415 34.5713C12.7592 34.5036 12.8628 34.4417 12.9482 34.3893C13.1192 34.2846 13.2184 34.2181 13.2184 34.2181L24.5885 25.7192C24.5885 25.7192 24.6857 25.6379 24.8648 25.4945C24.9544 25.4228 25.0643 25.3356 25.1929 25.2353C25.3215 25.1351 25.4687 25.0215 25.6325 24.8975C25.7962 24.7736 25.9765 24.6391 26.1716 24.4962C26.3666 24.3534 26.5764 24.2024 26.7989 24.0456C27.0214 23.8887 27.2567 23.7259 27.5028 23.5599C27.7489 23.3939 28.0058 23.2246 28.2717 23.0542C28.4046 22.9691 28.5397 22.8838 28.6769 22.7985C28.814 22.7131 28.953 22.6278 29.0939 22.5429C29.2347 22.458 29.3775 22.3735 29.5216 22.2897C29.6658 22.2058 29.8113 22.1228 29.9582 22.0406C30.1051 21.9584 30.2535 21.877 30.4027 21.7971C30.5519 21.7172 30.7021 21.6387 30.8531 21.5616C31.0041 21.4846 31.1558 21.409 31.3081 21.3354C31.4604 21.2618 31.6133 21.19 31.7665 21.1205C31.9197 21.051 32.0731 20.9837 32.2267 20.9189C32.3802 20.8541 32.5337 20.7918 32.6871 20.7323C32.8405 20.6727 32.994 20.616 33.1468 20.5623C33.2996 20.5087 33.4519 20.4581 33.6036 20.4109C33.7554 20.3638 33.9064 20.3201 34.0566 20.2801C34.2068 20.24 34.356 20.2036 34.5042 20.1713C34.6523 20.139 34.7995 20.1107 34.9451 20.0867C35.0907 20.0628 35.2349 20.0431 35.3775 20.0281C35.5201 20.013 35.6595 19.9961 35.7958 19.9775C35.9321 19.9588 36.0654 19.9385 36.1955 19.9165C36.3256 19.8946 36.4527 19.8709 36.5768 19.8458C36.7008 19.8208 36.8219 19.7945 36.94 19.7667C37.0582 19.7389 37.1733 19.7096 37.2856 19.6793C37.3978 19.6489 37.5073 19.6175 37.6139 19.5849C37.7204 19.5523 37.8239 19.5185 37.9249 19.4839C38.0259 19.4492 38.1243 19.4136 38.2198 19.3772C38.3153 19.3408 38.4081 19.3035 38.4982 19.2656C38.5884 19.2277 38.676 19.1893 38.761 19.1502C38.8459 19.1111 38.9282 19.0715 39.008 19.0314C39.0878 18.9913 39.1651 18.9506 39.2399 18.9098C39.3147 18.869 39.3869 18.8281 39.4569 18.7869C39.5268 18.7457 39.5945 18.7042 39.6597 18.6627C39.7249 18.6214 39.7876 18.5799 39.8482 18.5386C39.9087 18.4972 39.9672 18.4559 40.0232 18.4149C40.1353 18.3329 40.2383 18.2521 40.333 18.173C40.4278 18.0939 40.5141 18.0167 40.5924 17.9427C40.6708 17.8686 40.7414 17.7978 40.8043 17.7308C40.8672 17.6639 40.9224 17.6009 40.9709 17.5431C41.0193 17.4854 41.0607 17.4328 41.0955 17.3863C41.1304 17.3399 41.1589 17.2996 41.1812 17.2665C41.2257 17.2004 41.2462 17.1632 41.2462 17.1632C41.2462 17.1632 41.2535 17.1474 41.2655 17.1164C41.2775 17.0853 41.2939 17.0392 41.3126 16.9788C41.3312 16.9185 41.352 16.8438 41.3719 16.7559C41.382 16.712 41.3919 16.6648 41.4012 16.6143C41.4106 16.5638 41.4192 16.51 41.4272 16.4531C41.4352 16.3962 41.4425 16.3362 41.4486 16.2731C41.4546 16.2101 41.4596 16.1441 41.4629 16.0752C41.4664 16.0062 41.4683 15.9344 41.4684 15.8597C41.4684 15.7851 41.4664 15.7077 41.4627 15.6276C41.4587 15.5475 41.4527 15.4647 41.4442 15.3793C41.4356 15.2938 41.4246 15.2059 41.4108 15.1155C41.3969 15.025 41.3804 14.9321 41.3606 14.8368C41.3408 14.7415 41.3176 14.6437 41.2912 14.5437C41.278 14.4938 41.2666 14.4465 41.2568 14.4013C41.2469 14.3561 41.2388 14.3133 41.2321 14.2728C41.2254 14.2322 41.2202 14.1937 41.2164 14.1576C41.213 14.1214 41.2104 14.0875 41.2095 14.0555C41.2085 14.0236 41.209 13.9938 41.2105 13.9658C41.212 13.9378 41.215 13.9116 41.2193 13.8874C41.2233 13.8632 41.2284 13.8407 41.2347 13.82C41.241 13.7994 41.2485 13.7805 41.2568 13.7632C41.2651 13.7459 41.2741 13.7301 41.2843 13.7159C41.2944 13.7017 41.3057 13.6889 41.3175 13.6776C41.3293 13.6663 41.3418 13.6566 41.355 13.6481C41.3683 13.6395 41.3821 13.6322 41.3967 13.6262C41.4112 13.6201 41.4263 13.6153 41.4419 13.6116C41.4575 13.6076 41.4735 13.605 41.49 13.6034C41.5229 13.5999 41.5574 13.6009 41.5928 13.6044C41.6282 13.6084 41.6642 13.615 41.7005 13.6242C41.7368 13.6333 41.7731 13.6447 41.8087 13.6576C41.8444 13.6705 41.8794 13.6848 41.9129 13.6998C41.9463 13.7147 41.9784 13.7302 42.0082 13.7456C42.0679 13.7762 42.1186 13.8058 42.1545 13.8278C42.1904 13.8498 42.2116 13.8644 42.2116 13.8644C42.2116 13.8644 42.2223 13.8888 42.2409 13.9363C42.2567 13.9766 42.2803 14.042 42.3057 14.1145C42.1617 13.5542 42.0239 13.2373 42.0239 13.2373C42.0239 13.2373 41.5991 12.9463 41.3025 12.9764Z" fill="url(#paint10_linear_2007_38)"/>
</g>
<g opacity="0.0240827" filter="url(#filter7_f_2007_38)">
<path d="M5.98462 35.6917C5.98462 35.6917 6.58306 34.5199 7.06624 34.5422C7.54943 34.5645 8.57368 35.0412 9.96425 34.7435C11.3548 34.4457 12.9463 33.3787 12.9463 33.3787L24.3161 24.8798C24.3161 24.8798 30.5417 19.6705 35.1053 19.1888C39.6689 18.707 40.9738 16.324 40.9738 16.324C40.9738 16.324 41.442 15.3034 41.0191 13.7045C40.5961 12.1057 41.9392 13.0249 41.9392 13.0249C41.9392 13.0249 42.9769 15.5071 42.6956 18.4046C42.467 20.7587 42.1823 23.6975 40.4007 27.0864C38.463 31.8 35.574 38.0329 36.4855 43.2755C36.8318 44.8462 37.1659 46.0081 37.1659 46.0081H19.8324L18.9712 40.1025L18.3188 39.9324C18.3188 39.9324 12.5363 39.0679 10.6272 38.4082C8.71816 37.7485 7.94414 37.4019 7.05531 36.8919C6.1986 36.4002 6.26701 36.2716 5.98462 35.6917Z" fill="url(#paint11_linear_2007_38)"/>
</g>
<g filter="url(#filter8_f_2007_38)">
<path d="M5.95556 34.2846C5.89001 34.6885 5.86626 35.1205 5.908 35.5723C5.91366 35.5633 5.91731 35.5563 5.92316 35.5471C5.96672 35.4789 6.0154 35.4063 6.0679 35.3338C6.1204 35.2612 6.17661 35.1887 6.23526 35.1211C6.26459 35.0874 6.29464 35.0548 6.32499 35.024C6.35533 34.9932 6.38601 34.9643 6.41702 34.9376C6.44804 34.9109 6.47927 34.8865 6.5106 34.8651C6.54193 34.8437 6.57339 34.8253 6.60469 34.8103C6.63599 34.7953 6.66709 34.7838 6.69801 34.7764C6.71348 34.7729 6.72899 34.7702 6.74429 34.7687C6.75959 34.7672 6.7747 34.7667 6.7898 34.7672C6.81999 34.7687 6.85233 34.7717 6.88672 34.7762C6.9211 34.7807 6.95749 34.7871 6.99598 34.7945C7.07294 34.809 7.15815 34.8281 7.251 34.8497C7.34385 34.8713 7.44451 34.8954 7.55256 34.9191C7.66062 34.9429 7.77603 34.9666 7.8986 34.9878C7.95988 34.9984 8.02302 35.0083 8.08781 35.0173C8.1526 35.0264 8.2191 35.0346 8.28731 35.0415C8.35551 35.0484 8.4253 35.0539 8.49683 35.058C8.56836 35.062 8.6416 35.0649 8.71638 35.0657C8.79116 35.0667 8.8675 35.0655 8.94544 35.0622C9.02338 35.0592 9.103 35.0537 9.18401 35.046C9.26503 35.0383 9.34732 35.028 9.43133 35.0151C9.51533 35.0023 9.60099 34.9867 9.6879 34.9681C9.77481 34.9495 9.86234 34.928 9.95038 34.9038C10.0384 34.8796 10.1269 34.853 10.2152 34.8241C10.3035 34.7953 10.3918 34.7642 10.4795 34.7316C10.5671 34.699 10.6542 34.6647 10.7404 34.6292C10.8266 34.5938 10.9119 34.5572 10.9957 34.5197C11.0795 34.4823 11.1619 34.4441 11.2425 34.4056C11.4036 34.3285 11.5574 34.2502 11.7003 34.1742C11.8433 34.0982 11.9752 34.0245 12.0929 33.9567C12.2106 33.889 12.3139 33.8273 12.3994 33.775C12.5703 33.6703 12.6698 33.6035 12.6698 33.6035L24.0396 25.1046C24.0396 25.1046 24.1371 25.0232 24.3162 24.8799C24.4058 24.8082 24.5157 24.721 24.6442 24.6207C24.7728 24.5205 24.9201 24.4072 25.0839 24.2832C25.2476 24.1592 25.4279 24.0245 25.623 23.8816C25.818 23.7388 26.0277 23.5878 26.2502 23.4309C26.4727 23.2741 26.708 23.1113 26.9541 22.9453C27.2002 22.7793 27.457 22.61 27.7228 22.4396C27.8557 22.3545 27.9911 22.2692 28.1282 22.1838C28.2654 22.0985 28.4044 22.0132 28.5452 21.9283C28.6861 21.8434 28.8289 21.7589 28.973 21.6751C29.1171 21.5912 29.2626 21.5081 29.4095 21.426C29.5564 21.3438 29.7046 21.2624 29.8538 21.1825C30.003 21.1026 30.1532 21.0241 30.3042 20.947C30.4552 20.8699 30.6072 20.7944 30.7595 20.7208C30.9118 20.6472 31.0647 20.5754 31.2179 20.5059C31.371 20.4363 31.5245 20.3691 31.678 20.3043C31.8316 20.2395 31.9851 20.1772 32.1385 20.1177C32.2919 20.0581 32.4453 20.0014 32.5982 19.9477C32.751 19.8941 32.9032 19.8434 33.055 19.7963C33.2067 19.7491 33.3578 19.7055 33.508 19.6655C33.6581 19.6254 33.8074 19.589 33.9556 19.5567C34.1037 19.5244 34.2508 19.4961 34.3964 19.4721C34.5421 19.4481 34.6862 19.4285 34.8289 19.4135C34.9715 19.3984 35.1108 19.3815 35.2471 19.3629C35.3834 19.3442 35.5168 19.3239 35.6469 19.3019C35.777 19.28 35.9041 19.2565 36.0282 19.2315C36.1522 19.2065 36.273 19.1799 36.3912 19.1521C36.5093 19.1242 36.6247 19.095 36.7369 19.0646C36.8492 19.0343 36.9584 19.0029 37.065 18.9703C37.1715 18.9377 37.2753 18.9039 37.3763 18.8693C37.4773 18.8346 37.5757 18.799 37.6712 18.7626C37.7667 18.7262 37.8594 18.6891 37.9496 18.6513C38.0398 18.6133 38.1272 18.5747 38.2121 18.5356C38.297 18.4965 38.3793 18.4569 38.4591 18.4168C38.539 18.3767 38.6165 18.3362 38.6913 18.2955C38.7661 18.2547 38.8383 18.2135 38.9083 18.1723C38.9782 18.1311 39.0459 18.0895 39.1111 18.0481C39.1763 18.0067 39.239 17.9653 39.2995 17.924C39.3601 17.8826 39.4183 17.8416 39.4744 17.8006C39.5864 17.7186 39.6897 17.6375 39.7844 17.5584C39.8791 17.4793 39.9655 17.4021 40.0438 17.328C40.1221 17.254 40.1925 17.1831 40.2554 17.1162C40.3183 17.0493 40.3738 16.9863 40.4222 16.9285C40.4706 16.8708 40.512 16.8181 40.5469 16.7717C40.5818 16.7253 40.6102 16.6852 40.6325 16.6522C40.6771 16.5861 40.6973 16.5488 40.6973 16.5488C40.6973 16.5488 40.7046 16.5328 40.7166 16.5018C40.7286 16.4707 40.7453 16.4245 40.7639 16.3642C40.7826 16.3039 40.8033 16.2295 40.8233 16.1416C40.8333 16.0976 40.843 16.0502 40.8524 15.9997C40.8617 15.9492 40.8706 15.8954 40.8786 15.8385C40.8866 15.7816 40.8939 15.7218 40.8999 15.6588C40.9059 15.5958 40.9109 15.5295 40.9143 15.4606C40.9178 15.3916 40.9196 15.32 40.9197 15.2454C40.9198 15.1708 40.9177 15.0931 40.914 15.013C40.9101 14.9329 40.9041 14.8501 40.8955 14.7647C40.887 14.6793 40.8759 14.5913 40.8621 14.5009C40.8483 14.4104 40.8315 14.3175 40.8117 14.2222C40.8077 14.2026 40.8019 14.1818 40.7976 14.162C40.7977 14.1769 40.7986 14.1929 40.7986 14.2076C40.7985 14.2822 40.7966 14.3538 40.7932 14.4227C40.7897 14.4917 40.7848 14.5579 40.7788 14.621C40.7728 14.684 40.7654 14.7438 40.7574 14.8007C40.7494 14.8575 40.7406 14.9113 40.7312 14.9618C40.7219 15.0124 40.7122 15.0598 40.7022 15.1037C40.6822 15.1917 40.6614 15.2661 40.6428 15.3264C40.6241 15.3867 40.6075 15.4329 40.5955 15.4639C40.5835 15.495 40.5762 15.511 40.5762 15.511C40.5762 15.511 40.556 15.5483 40.5114 15.6143C40.4891 15.6474 40.4607 15.6875 40.4258 15.7339C40.3909 15.7803 40.3495 15.833 40.3011 15.8907C40.2527 15.9484 40.1971 16.0114 40.1342 16.0784C40.0714 16.1453 40.001 16.2162 39.9227 16.2902C39.8443 16.3643 39.758 16.4415 39.6633 16.5206C39.6159 16.5601 39.5663 16.6002 39.5147 16.6406C39.463 16.681 39.4093 16.7217 39.3532 16.7627C39.2972 16.8037 39.239 16.8448 39.1784 16.8861C39.1178 16.9275 39.0552 16.9689 38.99 17.0103C38.9248 17.0517 38.8571 17.0932 38.7871 17.1345C38.7172 17.1757 38.645 17.2168 38.5701 17.2576C38.4953 17.2984 38.4178 17.3389 38.338 17.379C38.2582 17.4191 38.1759 17.4586 38.0909 17.4977C38.006 17.5368 37.9186 17.5756 37.8285 17.6134C37.7383 17.6513 37.6456 17.6883 37.55 17.7247C37.4545 17.7612 37.3561 17.7968 37.2552 17.8314C37.1542 17.866 37.0504 17.8998 36.9438 17.9325C36.8373 17.9651 36.7281 17.9965 36.6158 18.0268C36.5035 18.0572 36.3881 18.0864 36.27 18.1142C36.1519 18.142 36.0311 18.1686 35.907 18.1937C35.783 18.2187 35.6559 18.2422 35.5258 18.2641C35.3956 18.2861 35.2623 18.3064 35.126 18.325C34.9897 18.3437 34.8503 18.3606 34.7077 18.3757C34.6364 18.3832 34.5646 18.3918 34.4925 18.4016C34.4205 18.4114 34.3481 18.4223 34.2753 18.4343C34.1297 18.4583 33.9826 18.4866 33.8344 18.5189C33.6863 18.5512 33.537 18.5876 33.3868 18.6276C33.2367 18.6676 33.0856 18.7113 32.9339 18.7585C32.7821 18.8056 32.6298 18.8562 32.477 18.9099C32.3242 18.9635 32.1708 19.0203 32.0173 19.0798C31.8639 19.1394 31.7105 19.2016 31.5569 19.2665C31.4034 19.3313 31.2499 19.3985 31.0967 19.468C30.9436 19.5375 30.7907 19.6093 30.6384 19.6829C30.486 19.7565 30.3341 19.8321 30.1831 19.9092C30.0321 19.9862 29.8818 20.0647 29.7326 20.1447C29.5835 20.2246 29.4353 20.3059 29.2884 20.3881C29.1415 20.4703 28.996 20.5534 28.8519 20.6372C28.7077 20.7211 28.565 20.8056 28.4241 20.8905C28.2832 20.9754 28.1442 21.0607 28.0071 21.146C27.87 21.2313 27.7346 21.3166 27.6017 21.4018C27.3358 21.5721 27.0791 21.7415 26.833 21.9075C26.5869 22.0735 26.3516 22.2363 26.1291 22.3931C25.9066 22.55 25.6969 22.7009 25.5018 22.8438C25.3068 22.9866 25.1265 23.1214 24.9627 23.2453C24.799 23.3693 24.6517 23.4826 24.5231 23.5829C24.3945 23.6831 24.2846 23.7703 24.1951 23.842C24.0159 23.9854 23.9184 24.0667 23.9184 24.0667L12.5487 32.5657C12.5487 32.5657 12.4491 32.6324 12.2782 32.7371C12.1928 32.7895 12.0895 32.8511 11.9718 32.9189C11.8541 32.9866 11.7221 33.0604 11.5792 33.1364C11.4363 33.2124 11.2825 33.2907 11.1213 33.3678C11.0408 33.4063 10.9584 33.4444 10.8745 33.4819C10.7907 33.5194 10.7054 33.5559 10.6193 33.5914C10.5331 33.6269 10.446 33.6611 10.3583 33.6937C10.2706 33.7263 10.1823 33.7574 10.094 33.7863C10.0057 33.8151 9.91729 33.8418 9.82924 33.866C9.7412 33.8902 9.65367 33.9116 9.56676 33.9302C9.47985 33.9489 9.3942 33.9645 9.31019 33.9773C9.22619 33.9901 9.1439 34.0005 9.06288 34.0082C8.98186 34.0159 8.90224 34.0213 8.8243 34.0243C8.74636 34.0278 8.67002 34.0288 8.59524 34.0278C8.52046 34.0268 8.44723 34.0238 8.3757 34.0201C8.30416 34.0161 8.23437 34.0105 8.16617 34.0036C8.09797 33.9967 8.03146 33.9885 7.96667 33.9795C7.90189 33.9704 7.83875 33.9605 7.77746 33.9499C7.65489 33.9287 7.53948 33.905 7.43143 33.8813C7.32337 33.8575 7.22272 33.8334 7.12987 33.8118C7.03702 33.7903 6.9518 33.7711 6.87484 33.7566C6.83636 33.7493 6.79996 33.7428 6.76558 33.7383C6.7312 33.7338 6.69886 33.7308 6.66866 33.7293C6.65356 33.7288 6.63846 33.7291 6.62315 33.7308C6.60785 33.7323 6.59234 33.7348 6.57688 33.7385C6.54596 33.7459 6.51486 33.7575 6.48356 33.7724C6.45226 33.7874 6.4208 33.8058 6.38946 33.8272C6.35813 33.8486 6.3269 33.873 6.29588 33.8997C6.26487 33.9264 6.2342 33.9553 6.20385 33.9861C6.1735 34.0169 6.14346 34.0495 6.11413 34.0833C6.0848 34.117 6.05595 34.1522 6.028 34.1879C6.00306 34.2197 5.97916 34.2522 5.95556 34.2846Z" fill="url(#paint12_linear_2007_38)"/>
</g>
<g opacity="0.337071" filter="url(#filter9_f_2007_38)">
<path d="M7.13673 30.3832C6.83706 30.3467 6.57359 31.1381 6.4701 31.2416C6.45183 31.2599 6.40348 31.2182 6.39261 31.2416C6.3139 31.3027 6.42334 31.4028 6.39261 31.4738C6.3359 31.6049 6.19759 31.6559 6.13899 31.7731C6.07317 31.9048 6.14977 31.9824 6.06607 32.1056C6.03067 32.1577 5.94155 32.1456 5.89699 32.1901C5.81832 32.2688 5.72142 32.6795 5.64601 32.7673C5.63099 32.7848 5.58564 32.746 5.57687 32.7673C5.54935 32.8342 5.54246 32.9686 5.49232 33.0188C5.47265 33.0384 5.4297 33.0004 5.40883 33.0188C5.39727 33.029 5.41795 33.1332 5.40883 33.1506C5.23115 33.4887 5.35164 34.4992 5.48299 34.7726C5.52143 34.8526 5.88866 35.1012 5.92698 35.1525C6.07016 35.3442 6.12937 34.7515 6.25384 34.7515C6.41871 34.7515 6.21152 34.772 6.31522 34.667C6.36011 34.6215 6.59594 34.621 6.62904 34.5854C6.64821 34.5647 6.60924 34.5209 6.62904 34.5008C6.66206 34.4575 6.7459 34.5369 6.78194 34.5008C6.81967 34.4631 6.94223 34.2914 7.07661 34.3514C7.38187 34.4876 7.9327 34.3175 8.15363 34.4359C8.56917 34.6586 9.32261 34.5165 9.81726 34.5165C10.0405 34.5165 10.9707 34.5915 11.1011 34.5165C11.1875 34.4668 11.5496 34.314 11.6007 34.2629C11.6206 34.2429 11.5809 34.1984 11.6007 34.1783C11.6203 34.1585 11.6611 34.1938 11.6842 34.1783C11.9111 34.0267 12.0714 33.8801 12.3123 33.7798C12.453 33.7212 12.3219 33.6317 12.4628 33.5611C12.5527 33.5161 13.0356 33.1629 13.0623 33.1095C13.0749 33.0843 13.0424 33.0448 13.0623 33.0249C13.1778 32.9094 13.3754 32.8627 13.501 32.7966C13.6874 32.6983 13.7991 32.4619 13.9905 32.3738C14.1153 32.3164 14.1553 32.4015 14.3072 32.3009C14.3598 32.2661 14.3354 32.16 14.3918 32.1318C14.4957 32.0798 14.6261 32.0993 14.7299 32.0472C14.8019 32.0112 14.8287 31.9126 14.9006 31.8765C15.0045 31.8245 15.1309 31.8352 15.2388 31.792C15.3816 31.7349 15.6089 31.607 15.7461 31.5384C15.942 31.4404 16.1401 31.2344 16.3345 31.1179C16.5209 31.0064 16.7376 31.0024 16.839 30.9517C17.0218 30.8603 17.171 30.6454 17.3434 30.5317C17.5572 30.3909 17.4981 30.498 17.7634 30.3654C17.9001 30.2971 18.1919 30.0608 18.2706 29.9427C18.2863 29.9193 18.2454 29.8708 18.2706 29.8582C18.3211 29.833 18.3893 29.8834 18.4397 29.8582C18.4649 29.8456 18.4198 29.7935 18.4397 29.7736C18.4843 29.7291 18.5641 29.7335 18.6088 29.6891C18.6286 29.6695 18.5891 29.6252 18.6088 29.6056C18.7271 29.488 18.9708 29.3398 19.1055 29.27C19.251 29.1946 19.3804 28.9135 19.4292 28.8673C19.4939 28.806 19.6087 28.8322 19.6829 28.7828C19.9808 28.5841 19.9377 28.4873 20.3322 28.29C20.4597 28.2262 20.3988 28.1388 20.5002 28.0374C20.5201 28.0175 20.5595 28.05 20.5847 28.0374C20.7744 27.9426 20.9098 27.7058 21.092 27.6147C21.3642 27.4786 22.6298 26.0508 22.7735 25.7785C22.8712 25.5932 23.0032 25.6444 23.1034 25.4441C23.2338 25.1831 23.7358 25.0907 23.913 24.9994C24.0142 24.9472 24.5225 24.453 24.59 24.3767C24.6624 24.2949 24.7165 24.1347 24.8404 24.0524C24.8929 24.0175 24.965 24.0124 25.0095 23.9678C25.0541 23.9233 25.0499 23.8437 25.0941 23.7987C25.2966 23.5925 25.6857 23.414 25.7986 23.1724C25.8334 23.0979 26.8033 22.4474 26.9178 22.3711C27.0478 22.2844 27.1255 22.1227 27.2544 22.0345C27.7876 21.6694 28.3213 21.3394 28.8839 21.0419C28.9278 21.0187 28.9891 21.0653 29.0329 21.0419C29.3345 20.8807 29.6833 20.8021 29.9952 20.6462C30.0702 20.6087 30.1654 20.6666 30.2467 20.6462C30.399 20.6079 30.535 20.5477 30.6606 20.4849C30.888 20.3711 31.2911 20.6013 31.5169 20.4849C31.6265 20.4283 31.7268 20.3855 31.8591 20.3385C32.0023 20.2877 32.1908 20.2777 32.2701 20.1984C32.4512 20.0173 32.6972 20.0942 32.9227 20.0136C33.1102 19.9465 33.5864 19.7521 33.7078 19.6427C33.743 19.6111 33.8147 19.4955 33.8968 19.4526C33.9957 19.4008 34.1659 19.4546 34.2672 19.4012C34.3173 19.3748 34.3362 19.3054 34.3873 19.2811C34.3984 19.2758 34.8214 19.2081 34.7653 19.1222C34.7384 19.081 34.3375 19.1222 34.2695 19.1222C34.0701 19.1222 33.3513 19.1175 33.347 19.1222C33.3283 19.1428 33.3649 19.1844 33.347 19.2058C33.2906 19.2735 33.0096 19.1694 32.9192 19.2058C32.7045 19.2922 32.5001 19.3003 32.3092 19.3957C32.2027 19.449 32.055 19.4011 31.9419 19.4577C31.7833 19.537 31.5258 19.4323 31.3739 19.5122C30.8673 19.7788 30.0599 19.6587 29.4494 19.6587C29.306 19.6587 28.5164 19.7165 28.4833 19.7432C28.3439 19.8559 28.0358 19.9944 27.8283 20.0962C27.7912 20.1144 27.7342 20.0676 27.7043 20.0962C27.5166 20.2755 27.167 20.4593 26.9043 20.5907C26.853 20.6164 26.8354 20.6901 26.7826 20.7124C26.7335 20.7332 26.5739 20.7594 26.5425 20.7908C26.5228 20.8105 26.5618 20.8543 26.5425 20.8743C26.5239 20.8936 26.4862 20.8628 26.462 20.8743C26.3683 20.9187 26.3136 21.0544 26.2258 21.1104C26.1204 21.1777 26.0044 21.2129 25.9096 21.2604C25.7554 21.3374 25.665 21.5187 25.5105 21.5951C25.4709 21.6147 25.3579 21.6323 25.3291 21.6581C25.2051 21.7693 25.0686 21.9722 24.8305 22.0928C24.7033 22.1572 24.3198 22.6575 24.2148 22.7719C23.9834 23.0242 23.6615 23.1822 23.4185 23.4004C23.3925 23.4238 23.3768 23.5659 23.3164 23.5878C23.2637 23.607 23.1985 23.5629 23.1483 23.5878C23.1234 23.6002 23.1605 23.6463 23.1483 23.6713C23.0974 23.7764 22.9978 23.8542 22.9007 23.919C22.8262 23.9686 22.4369 24.1156 22.3917 24.166C22.1203 24.4682 21.804 24.5973 21.5187 24.8904C21.4817 24.9283 21.3181 24.9847 21.277 25.0212C21.2247 25.0675 20.5156 25.7658 20.4451 25.7181C20.3502 25.654 20.9284 24.4248 21.0019 24.282C21.091 24.1088 21.2313 23.9122 21.3209 23.733C21.3259 23.723 21.3159 23.5756 21.3209 23.565C21.326 23.554 21.4593 23.4323 21.4655 23.4204C21.483 23.3867 21.4389 23.2682 21.4655 23.2417C21.575 23.1326 21.7225 22.88 21.8159 22.6951C21.853 22.6216 21.7896 22.5261 21.8159 22.448C21.874 22.2752 22.0043 22.1318 22.0695 21.9408C22.1408 21.7318 22.1336 21.5142 22.2113 21.3095C22.2395 21.2354 22.3389 21.1615 22.3614 21.0845C22.3831 21.0096 22.3291 20.9216 22.3614 20.8507C22.4864 20.5753 22.6147 20.2564 22.7324 20.0211C22.7895 19.9069 22.7844 19.2284 22.7324 19.1295C22.6471 18.9674 22.516 19.0463 22.3796 18.9099C22.2066 18.7368 21.5152 18.5918 21.5013 18.5742C21.4859 18.5546 21.5199 18.516 21.5013 18.4993C21.3915 18.4006 21.0701 18.5728 20.9376 18.4993C20.9032 18.4802 20.8891 18.4337 20.8541 18.4158C20.6519 18.3124 20.2613 18.4717 20.0391 18.4158C19.6034 18.3062 20.1255 18.3312 19.702 18.3312C19.3693 18.3312 18.8833 18.4358 18.5756 18.3312C18.1629 18.1911 17.7472 18.1147 17.3703 17.9324C17.2642 17.881 17.0961 17.9696 16.9829 17.9324C16.7943 17.8703 16.6206 17.8487 16.4586 17.7677C16.2739 17.6754 15.307 17.7888 15.1171 17.6877C14.8829 17.5628 14.6933 17.6765 14.5475 17.6031C13.7395 17.1966 11.907 17.3538 10.9221 17.3538C10.804 17.3538 8.85487 17.3729 8.80258 17.4355C8.78772 17.4533 8.82039 17.4902 8.80258 17.505C8.73423 17.5619 8.50161 17.5723 8.44222 17.6349C8.27942 17.8065 8.67998 17.6335 8.36223 17.7994C8.10494 17.9339 7.8284 18.079 7.56192 18.2158C7.35164 18.3238 6.9033 18.8186 6.80762 18.9146C6.79453 18.9277 6.80762 18.9517 6.80762 18.9702C6.80762 18.9901 6.82167 19.0158 6.80762 19.0299C6.76634 19.0711 6.67613 19.0618 6.63055 19.1474C6.61659 19.1736 6.65024 19.2552 6.63055 19.278C6.42995 19.5096 6.45085 19.916 6.28445 20.1874C6.22587 20.2829 6.28445 21.0786 6.28445 21.2341C6.28445 21.8927 6.21255 22.6285 6.36899 23.2523C6.40195 23.3837 6.34241 23.5421 6.36899 23.675C6.42134 23.9368 6.45406 24.2044 6.53807 24.4506C6.62498 24.7053 6.53807 25.4164 6.53807 25.6968C6.53807 26.4445 6.39859 27.6571 6.62262 28.3264C6.72552 28.6338 6.4855 29.3597 6.62262 29.62C6.78041 29.9196 6.85961 30.0397 7.13673 30.3832Z" fill="black" fill-opacity="0.276758"/>
</g>
<g opacity="0.0889444" filter="url(#filter10_f_2007_38)">
<path d="M6.31607 36.4237C6.39629 37.9859 7.54544 36.6604 7.9969 37.0082C8.5084 37.4023 9.73328 37.3468 10.0469 37.708C10.0799 37.7459 10.2496 37.6828 10.2966 37.708C10.5925 37.8663 10.8547 37.7928 11.1923 37.9649C11.3812 38.0613 12.2185 38.0369 12.6087 38.2235C12.8999 38.3627 13.6333 38.0242 13.8826 38.2235C13.9174 38.2513 13.8538 38.3231 13.8826 38.357C13.9013 38.379 14.0584 38.3394 14.087 38.357C14.5127 38.6191 13.8199 38.4213 14.5706 38.6715C14.6749 38.7063 14.8233 38.5932 14.9003 38.6715C14.9385 38.7104 14.8616 38.7966 14.9003 38.835C14.9855 38.9193 15.294 38.774 15.4024 38.835C15.7221 39.0146 16.7386 39.0781 16.8573 39.1552C16.9839 39.2374 17.3374 39.315 17.3401 39.3186C17.3675 39.356 17.3044 39.4281 17.3401 39.4578C17.5324 39.6181 18.1054 39.4414 18.402 39.7924C18.4492 39.8483 18.3473 39.9461 18.402 39.9998C18.5157 40.1115 18.7654 40.3358 18.8677 40.5543C18.9444 40.7181 18.8677 41.1144 18.8677 41.299C18.8677 42.647 18.6883 44.4937 19.5136 45.319C19.5637 45.3692 19.4688 45.5506 19.5136 45.6066C19.5957 45.7093 21.5965 45.6066 22.3481 45.6066C23.9632 45.6066 25.5783 45.6066 27.1933 45.6066C27.7193 45.6066 28.9884 45.4158 29.3704 45.6066C30.2539 46.0479 33.1088 45.7644 34.3567 45.7644C34.4456 45.7644 34.9357 45.8264 35.0013 45.7644C35.061 45.708 34.7212 45.4626 34.7212 45.3159C34.7212 44.5728 34.5974 43.971 34.5974 43.2432C34.5974 42.8544 34.0914 42.2311 33.7948 42.0115C33.7797 42.0003 33.7948 41.8397 33.7948 41.8137C33.7948 41.4785 33.6436 40.6943 33.7948 40.4093C33.9898 40.0416 34.0612 39.0327 34.2408 38.6659C34.5458 38.0428 34.843 37.4219 35.1196 36.7864C35.243 36.5029 35.1637 36.0306 35.2887 35.7807C35.6982 34.9617 35.1863 36.545 35.6213 35.2845C35.6796 35.1156 35.5417 34.8486 35.6213 34.6905C35.7605 34.4142 35.7115 34.2349 35.7873 34.0897C36.1191 33.4541 35.7501 34.3783 36.0883 33.7695C36.1771 33.6095 36.1386 32.8904 36.2946 32.7554C36.8372 32.2854 37.3825 31.5453 37.9074 31.0622C37.9473 31.0254 37.9924 30.7556 38.0331 30.7096C38.4909 30.1923 39.134 29.5475 39.3749 29.1689C39.418 29.101 39.3125 28.7909 39.3749 28.7452C39.4144 28.7163 39.4862 28.7789 39.5217 28.7452C39.6296 28.6431 39.4449 28.2311 39.5217 28.0963C39.6486 27.8737 39.674 27.6044 39.7805 27.3729C40.2616 26.3276 40.7606 25.5102 41.3318 24.4376C41.4138 24.2837 41.2505 23.9996 41.3318 23.8453C41.6188 23.3006 41.4391 22.7449 41.7359 22.1985C41.8008 22.079 41.6237 21.4221 41.7359 21.3338C41.7802 21.2989 41.8649 21.3734 41.905 21.3338C41.9292 21.3098 41.8865 21.0814 41.905 21.0397C41.9885 20.8512 42.1377 20.7054 42.2237 20.5147C42.2431 20.4717 42.1987 20.2411 42.2237 20.2147C42.2606 20.1759 42.3428 20.2485 42.3842 20.2147C42.4052 20.1976 42.4112 19.5439 42.3842 19.5076C42.3639 19.4803 41.7423 19.5011 41.7359 19.5076C41.6978 19.5466 41.7736 19.6318 41.7359 19.6711C41.6925 19.7162 41.4415 19.6504 41.3723 19.6711C41.2256 19.715 41.0916 19.7994 40.9417 19.8305C40.8262 19.8545 40.2427 19.7435 40.1298 19.8305C40.0973 19.8556 40.158 19.9238 40.1298 19.9537C40.0326 20.0569 39.5893 19.8866 39.459 19.9537C39.3881 19.9902 39.3655 20.0976 39.2899 20.1228C38.9663 20.2307 38.2625 20.1228 37.9373 20.1228C36.4168 20.1228 33.5493 19.8778 32.4372 20.5066C32.1918 20.6453 30.9384 20.5782 30.7586 20.7286C30.7263 20.7555 30.7906 20.8274 30.7586 20.8545C30.6914 20.9115 30.5508 20.7869 30.4943 20.8545C30.4323 20.9286 30.5193 21.1957 30.4224 21.2704C30.0876 21.5283 29.7485 22.0739 29.4099 22.3854C29.3074 22.4797 28.5884 22.7424 28.3641 22.8678C28.0963 23.0175 27.8946 23.3201 27.7465 23.4888C27.697 23.5451 27.4496 23.5827 27.3736 23.6196C27.2146 23.6967 26.9849 24.1377 26.7388 24.2642C26.4194 24.4284 26.0611 24.5786 25.7392 24.7431C25.387 24.6892 25.6829 25.0126 25.5758 25.0717C25.3677 25.1865 25.0109 25.0418 24.8814 25.2076C24.8471 25.2514 24.9041 25.3238 24.8814 25.3746C24.7947 25.5684 24.5204 25.5888 24.4303 25.6789C24.2262 25.883 24.3494 26.0554 24.0922 26.184C23.9166 26.2718 23.3675 26.4029 23.2467 26.5222C22.927 26.838 23.7015 26.5504 23.0933 26.8426C22.9082 26.9315 22.5925 27.0095 22.4201 27.1807C22.3178 27.2825 22.3511 27.5298 22.135 27.633C21.9293 27.7313 21.7276 27.8183 21.5197 27.9289C21.4195 27.9822 21.2419 27.8818 21.1382 27.9289C20.6628 28.145 20.2236 28.5945 19.791 28.883C19.6782 28.9393 19.5655 28.9957 19.4528 29.0521C19.3964 29.0521 19.3342 29.027 19.2837 29.0521C18.5331 29.425 18.1313 30.6321 17.2812 31.0529C16.6393 31.3706 16.2523 31.8925 15.6556 32.199C15.3232 32.3697 15.1374 32.8189 14.8251 33.0295C14.2615 33.4096 13.7365 33.6078 13.1426 33.9028C13.0233 33.9621 12.8034 33.838 12.6873 33.9028C12.6186 33.9412 12.5908 34.0348 12.5203 34.0698C12.0063 34.3252 7.93015 33.8617 7.71245 34.0698C7.5885 34.1883 7.35945 34.2102 7.13499 34.3095C7.02215 34.3594 6.98659 34.5225 6.87324 34.5712C6.82147 34.5935 6.74401 34.5314 6.70416 34.5712C6.61504 34.6604 6.6138 34.811 6.53507 34.9094C5.83375 35.7861 5.65825 35.2184 6.31607 36.4237Z" fill="black"/>
</g>
<g opacity="0.286935" filter="url(#filter11_f_2007_38)">
<path d="M23.8945 19.2412C23.595 19.6912 23.415 20.0186 23.1634 20.2588C23.1322 20.2886 23.1043 20.4813 23.0762 20.512C23.0364 20.5554 22.8868 20.6315 22.8372 20.7411C22.7444 20.946 22.8741 21.2476 22.775 21.4529C22.6888 21.6315 22.5522 21.8332 22.4528 21.9328C22.3897 21.9959 22.3422 22.2843 22.295 22.3413C22.214 22.4392 22.3888 22.8131 22.295 22.8946C22.2713 22.9153 22.1337 22.9395 22.2163 23.0517C22.2748 23.1312 22.822 23.0053 22.8679 22.9823C23.3273 22.7529 23.4334 22.102 23.7282 21.7708C23.7498 21.7466 23.8397 21.7332 23.8596 21.7079C23.8835 21.6772 23.905 21.5064 23.9334 21.4813C24.0365 21.3906 24.2544 21.3187 24.3418 21.1551C24.3582 21.1245 24.3168 21.075 24.3418 21.0509C24.3677 21.0259 24.4244 21.0764 24.4498 21.0509C24.4753 21.0255 24.4268 20.9706 24.4498 20.9429C24.5423 20.832 24.7087 20.7306 24.8097 20.6129C24.8413 20.576 25.0206 20.5869 25.0429 20.5513C25.0581 20.5269 25.0204 20.483 25.0429 20.465C25.0899 20.4275 25.34 20.4201 25.3798 20.3812C25.4582 20.3046 25.4856 20.1719 25.5635 20.0944C25.6048 20.0532 25.7004 20.1385 25.7385 20.0944C25.7918 20.0327 25.9011 19.9216 25.961 19.8629C26.0589 19.767 26.8306 19.6689 26.8844 19.5967C26.9372 19.5259 26.9251 19.4759 26.9824 19.4162C27.0208 19.3762 27.1712 19.4494 27.2172 19.4162C27.3968 19.2867 28.0312 19.2996 28.059 19.2628C28.0827 19.2313 28.0311 19.1724 28.059 19.1446C28.0929 19.1106 28.8247 19.0512 28.9189 18.9932C28.9524 18.9726 28.8943 18.9058 28.9189 18.8751C28.9423 18.8459 29.6606 18.6397 29.7788 18.5868C29.8638 18.5488 30.0184 18.6331 30.0984 18.5868C30.6639 18.2595 31.3249 18.1796 32.0054 18.0435C32.447 17.9552 33.0095 18.1854 33.4336 18.0435C33.4871 18.0256 33.5028 17.9491 33.5532 17.9239C33.7407 17.8301 34.165 17.9239 34.3871 17.9239C34.6866 17.9239 35.1437 17.9983 35.4412 17.9239C35.7121 17.8562 35.8488 17.8043 36.1307 17.8043C36.1424 17.8043 36.913 17.8544 36.9452 17.8043C36.9647 17.7741 36.9221 17.724 36.9452 17.6964C36.9907 17.642 37.8302 17.6136 37.9342 17.5561C38.1109 17.4583 38.2548 17.344 38.4343 17.2559C38.5571 17.1957 38.7417 17.2778 38.8664 17.2109C39.0284 17.1241 39.0345 16.9697 39.1694 16.9023C39.6657 16.6543 39.8788 16.1913 40.335 15.9842C40.449 15.9324 40.5541 15.7483 40.5977 15.6602C40.7352 15.3819 40.543 14.3122 40.6901 14.0986C40.7891 13.955 41.0086 12.8691 40.8715 12.624C40.7798 12.46 39.3707 12.3431 39.108 12.3431C38.9865 12.3431 38.5832 11.9501 38.4431 12.084C38.423 12.1032 38.4431 12.2725 38.4431 12.2978C38.4431 13.1988 38.7768 12.8318 39.1 13.4367C39.1482 13.5269 39.2055 16.222 39.2029 16.2257C39.1568 16.2911 38.3994 16.1742 38.2317 16.3061C37.9305 16.543 37.9277 16.6444 37.5278 16.8467C37.4054 16.9087 37.3917 17.0956 37.2982 17.138C36.9998 17.2733 36.5234 17.0821 36.2349 17.2255C35.7001 17.4913 33.0925 17.3291 32.4072 17.3291C31.7423 17.3291 31.1405 17.4109 30.4567 17.4109C30.4361 17.4109 30.2758 17.3951 30.2633 17.4109C30.2195 17.4664 30.1174 17.5197 29.989 17.4788C29.6003 17.3549 29.6357 17.3157 29.1795 17.2397C29.1396 17.233 28.7952 17.2815 28.7235 17.2397C28.0307 16.8359 26.5067 16.6852 25.7137 17.058C25.653 17.0866 25.2614 17.1416 25.2369 17.1761C25.101 17.3671 24.7741 17.5336 24.6144 17.7768C24.5459 17.8811 24.5831 18.0434 24.4949 18.1316C24.4667 18.1598 24.4055 18.1056 24.3753 18.1316C24.3651 18.1404 23.897 19.2356 23.8945 19.2412Z" fill="white"/>
</g>
<g opacity="0.045" filter="url(#filter12_f_2007_38)">
<path d="M22.7189 19.6559C22.5253 19.645 22.1416 19.8028 21.9202 19.7248C21.8831 19.7117 21.8486 19.4936 21.8269 19.4743C21.8059 19.4555 21.7706 19.4743 21.7424 19.4743C21.687 19.4489 21.6206 19.4398 21.5762 19.398C21.5124 19.3381 21.5379 19.2611 21.4093 19.2017C21.2215 19.1151 20.9241 19.2766 20.7306 19.2017C20.5568 19.1344 20.5438 19.1172 20.3372 19.1172C19.8652 19.1172 19.1263 19.2407 18.7372 19.0327C18.6019 18.9603 18.3502 19.1051 18.2149 19.0327C18.1171 18.9803 18.0254 19.0122 17.9338 18.9673C17.8525 18.9275 17.8071 18.8656 17.7284 18.8238C17.6587 18.7867 17.3527 18.809 17.3094 18.7659C17.277 18.7338 16.8111 18.4668 16.7684 18.4478C16.5908 18.3689 16.8491 18.5558 16.6238 18.4478C16.4664 18.3723 16.2912 18.2814 16.1409 18.2068C16.1324 18.2026 15.9716 18.2201 15.9635 18.2068C15.9508 18.1858 15.9821 18.1492 15.9635 18.133C15.9226 18.0973 15.7984 18.1655 15.7543 18.133C15.6737 18.0735 15.6963 17.7987 15.6963 17.7022C15.6963 17.5943 15.6441 17.2559 15.6963 17.1477C15.7414 17.0542 16.0411 17.0819 16.1497 17.0097C16.2545 16.9401 16.4736 16.8519 16.6177 16.7756C16.657 16.7549 16.7196 16.8071 16.751 16.7756C16.8247 16.7019 16.7615 16.7041 16.9707 16.633C17.3757 16.4954 17.8725 16.7393 18.254 16.5485C18.3488 16.5011 18.9578 16.5482 19.0177 16.4687C19.0796 16.3868 19.0718 16.4628 19.1754 16.4146C19.3291 16.3432 19.1906 16.2526 19.3389 16.1785C19.5036 16.0961 19.656 16.0588 19.8091 15.9776C19.8617 15.9497 19.8699 15.8622 19.9261 15.8427C19.9794 15.8243 20.0405 15.8564 20.0952 15.8427C20.3725 15.7734 20.4405 15.5946 20.6496 15.4535C20.7186 15.4069 20.8253 15.4273 20.8848 15.369C20.9013 15.3528 20.867 15.3143 20.8848 15.2997C20.9617 15.2367 21.225 15.202 21.3027 15.1306C21.3207 15.1141 21.286 15.0752 21.3027 15.0574C21.4041 14.9495 23.0178 15.09 23.2454 15.09C23.3917 15.09 24.3798 15.0252 24.4731 15.09C24.4988 15.1078 24.5337 15.3203 24.5568 15.3441C24.6635 15.4546 24.5849 15.1698 24.718 15.377C24.7566 15.437 24.6784 15.569 24.718 15.6286C24.7335 15.6518 24.7794 15.6118 24.8016 15.6286C24.8086 15.6339 24.7957 15.7358 24.8016 15.7458C24.8981 15.9092 24.9743 16.042 25.043 16.2382C25.0488 16.2547 25.0752 16.6371 25.043 16.6603C25.0202 16.6769 24.9785 16.6405 24.9585 16.6603C24.9051 16.713 24.994 16.9068 24.9585 16.9778C24.9504 16.994 24.5565 17.2726 24.4816 17.3475C24.0761 17.753 23.8037 18.1205 23.4465 18.5088C23.4117 18.5467 23.3058 18.5449 23.2699 18.6273C23.2253 18.7297 23.1681 18.8357 23.1283 18.9484C23.1183 18.9769 23.1517 19.1458 23.1283 19.1652C23.1069 19.183 23.0668 19.1482 23.0448 19.1652C22.9959 19.1746 23.0707 19.2437 23.0448 19.2643C23.0336 19.2732 23.0161 19.2643 23.0017 19.2643C22.9074 19.3948 22.8132 19.5253 22.7189 19.6559Z" fill="black"/>
</g>
<g opacity="0.064" filter="url(#filter13_f_2007_38)">
<path d="M28.3975 23.0689C30.7235 23.0689 28.3258 22.9369 29.7129 23.2836C30.0706 23.3731 35.7181 23.3372 35.8254 23.2836C36.1943 23.0992 36.5269 23.0415 36.8961 22.8569C36.9376 22.8362 37.2799 22.8774 37.3227 22.8569C37.7192 22.6672 38.2314 22.4098 38.5783 22.1537C38.8179 21.9768 39.0042 21.0761 39.2972 20.9954C39.462 20.9499 39.1415 21.3008 39.0825 21.4613C38.9549 21.8087 38.8777 22.196 38.6531 22.5348C38.6432 22.5497 38.2363 22.9464 38.2309 22.957C38.1015 23.2115 38.0439 23.9345 37.8138 24.1646C37.7013 24.2772 37.4997 24.2667 37.3871 24.3793C37.3372 24.4292 37.4188 24.5281 37.3871 24.5913C37.2129 24.9398 36.7575 25.4213 36.5338 25.8687C36.4025 26.1312 36.2456 26.0283 36.1141 26.2883C35.8904 26.7308 35.7874 27.3035 35.47 27.7796C35.2444 28.1181 35.0253 28.2398 34.8287 28.633C34.024 30.2423 33.2621 31.7561 32.4752 33.34C32.3913 33.5087 32.5354 33.7987 32.4752 33.9787C31.8473 35.8546 32.4551 37.8384 32.9018 39.6197C32.9018 39.6198 32.9018 40.473 32.9018 40.4731C32.9462 40.6941 33.0615 40.8958 33.1165 41.1144C33.1611 41.2915 33.0357 41.5914 33.1165 41.7531C33.1612 41.8425 33.2969 41.8703 33.3285 41.9651C33.4383 42.2945 33.8777 45.8755 33.7438 46.1129C33.6018 46.3647 30.9907 46.1129 30.4928 46.1129C27.1718 46.1129 23.8509 46.1129 20.53 46.1129C20.2205 46.1129 19.4133 45.9697 19.1493 46.1129C19.0126 46.1871 18.6702 46.4856 18.4497 46.3115C18.2952 46.1896 18.6297 41.3317 18.1141 40.6867C18.0517 40.6087 17.3722 40.6867 17.2086 40.6867C16.4168 40.6867 15.7031 40.5949 15.0505 40.2686C14.6724 40.0796 13.5164 40.3328 13.0909 40.2686C12.3005 40.1494 11.5138 39.891 10.7842 39.6317C10.563 39.5531 10.1919 39.7467 9.99133 39.6317C9.92923 39.5962 10.0384 39.4709 9.99133 39.417C9.90488 39.3181 9.45913 39.4827 9.33885 39.417C9.2511 39.3691 9.21587 39.2503 9.12677 39.205C8.8866 39.0827 8.46678 39.3223 8.22377 39.205C8.079 39.135 7.63018 38.8898 7.54438 38.8126C7.34063 38.6291 7.07552 38.0658 6.89358 37.8634C6.74656 37.6998 6.37051 37.4775 6.21765 37.3285C5.77179 36.8937 6.7582 35.299 7.01895 35.1617C7.24496 35.0428 7.49601 34.6739 7.82354 34.5157C7.882 34.4875 7.95337 34.5157 8.01828 34.5157C8.08984 34.5157 8.16861 34.547 8.23297 34.5157C8.47393 34.3985 8.61336 34.2181 8.85419 34.0977C9.1979 33.9259 9.75419 33.9741 10.2331 33.7045C10.9017 33.3281 12.9898 34.0664 13.7003 33.7045C13.9624 33.571 14.1497 33.4742 14.4168 33.3328C14.6099 33.2305 14.9287 33.2745 15.1147 33.176C15.3129 33.071 16.297 32.6292 16.3919 32.5388C16.8655 32.0875 15.6764 32.5973 16.5858 32.1195C17.0487 31.8763 17.6064 31.5832 18.086 31.2635C18.3358 31.0969 18.4742 30.7944 18.7231 30.6263C18.7792 30.5884 18.8796 30.6755 18.9262 30.6263C18.9754 30.5744 18.8942 30.4757 18.9262 30.4117C18.9928 30.2783 22.4358 27.3621 22.7638 27.198C22.9722 27.0938 23.1803 26.8831 23.4052 26.7713C23.5326 26.7081 23.7313 26.8719 23.8319 26.7713C24.2774 26.3258 23.1439 26.7989 24.0466 26.3447C24.1097 26.3129 24.2086 26.3946 24.2586 26.3447C24.3085 26.2947 24.2083 26.1823 24.2586 26.1327C24.3233 26.0687 25.779 25.35 25.9369 25.2844C26.2747 25.1439 26.8041 24.5736 26.9767 24.4012C27.0425 24.3354 27.4614 24.2962 27.5038 24.2441C27.5268 24.2158 27.5038 24.1712 27.5038 24.1348C27.8017 23.7795 28.0996 23.4242 28.3975 23.0689Z" fill="black"/>
</g>
<g opacity="0.212025" filter="url(#filter14_f_2007_38)">
<path d="M23.2412 22.0914C23.3683 22.1514 23.544 22.0462 23.6336 21.8565C23.7232 21.6667 23.6928 21.4642 23.5657 21.4042C23.4386 21.3442 23.2629 21.4494 23.1733 21.6392C23.0837 21.8289 23.1141 22.0314 23.2412 22.0914Z" fill="black"/>
</g>
<g opacity="0.104226" filter="url(#filter15_f_2007_38)">
<path d="M28.6252 18.9145C28.5841 19.0489 28.3881 19.1081 28.1874 19.0468C27.9867 18.9855 27.8573 18.8268 27.8984 18.6924C27.9395 18.558 28.1355 18.4987 28.3362 18.5601C28.5369 18.6214 28.6663 18.7801 28.6252 18.9145Z" fill="black"/>
</g>
<g opacity="0.012" filter="url(#filter16_f_2007_38)">
<path d="M18.9714 40.1025C20.4948 40.4708 20.6722 40.4589 21.8234 39.8833C22.0385 39.7757 22.6456 39.7353 22.8302 39.5507C22.8696 39.5114 22.7817 39.4112 22.8302 39.3838C22.9159 39.3353 23.033 39.4174 23.1254 39.3838C23.1423 39.3776 24.0352 38.6729 24.2546 38.5523C24.5232 38.4047 24.5799 37.7777 24.9679 37.6721C25.0726 37.6436 25.1971 37.7221 25.2934 37.6721C25.3128 37.662 25.418 37.3763 25.4461 37.3503C25.9575 36.877 25.3639 37.6413 25.7126 37.3503C25.8026 37.2752 26.0752 37.1276 26.1589 37.0418C26.1906 37.0094 26.4299 37.0801 26.4473 37.0418C26.4681 36.9962 26.4098 36.9247 26.4473 36.8914C26.9233 36.4677 27.9668 37.7876 28.0546 38.1387C28.123 38.4121 27.9655 38.7167 28.0546 38.9841C28.1323 39.2172 28.3328 39.3652 28.3907 39.6562C28.4234 39.8207 28.3373 40.0003 28.3907 40.1593C28.4086 40.2127 28.5344 40.1089 28.5598 40.1593C28.7117 40.4611 28.4086 40.9913 28.5598 41.2935C28.7317 41.6374 28.7581 42.0059 28.8902 42.4048C28.9898 42.7057 28.7892 43.1062 28.8902 43.4066C28.9156 43.4821 29.0234 43.5045 29.0593 43.5756C29.2267 43.9085 29.0843 45.4184 28.857 45.6457C28.8176 45.685 28.7291 45.6061 28.69 45.6457C28.56 45.7774 28.4986 46.1425 28.4117 46.2533C28.3546 46.3262 27.1454 46.2533 26.9583 46.2533C24.6932 46.2533 22.4282 46.2533 20.1632 46.2533C19.7319 46.2533 18.6753 46.4658 18.309 46.2533C18.1256 46.147 18.478 45.1312 18.478 44.9993C18.478 43.3534 18.3375 41.6376 18.6452 40.0174" fill="black"/>
</g>
<g opacity="0.266854" filter="url(#filter17_f_2007_38)">
<path d="M8.01502 16.8289C7.97517 16.9229 7.80143 17.0711 7.89545 17.111C7.98947 17.1508 7.92044 16.8674 8.01502 16.8289C8.14736 16.7751 8.29712 16.8758 8.43932 16.8897C8.48861 16.8945 9.32876 16.1897 9.48848 16.0999C9.96236 15.8333 11.257 15.5782 11.7874 15.6421C12.2568 15.6987 12.775 15.9343 13.1953 16.1411C13.459 16.2709 13.6756 16.4304 13.9706 16.4926C14.4385 16.5913 14.9769 16.3469 15.3978 16.1693C15.9287 15.9453 16.3906 15.5788 16.8751 15.2711C17.3357 14.9786 17.8297 14.7415 18.2984 14.464C18.5909 14.2908 18.8586 14.0808 19.1586 13.9194C19.7721 13.5892 20.4421 13.3666 21.0486 13.0255C21.4865 12.7791 21.852 12.4351 22.2829 12.1793C22.6121 11.9838 23.4334 11.529 23.6252 11.1899C23.801 10.8791 23.8002 10.4115 23.8644 10.0508C23.9487 9.57622 24.0536 9.09593 24.2578 8.65569C24.3831 8.38559 24.5467 8.15135 24.6474 7.86809C24.7642 7.53952 25.1309 7.40246 25.2723 7.11087C25.3133 7.0262 25.2411 6.90909 25.1488 6.90909C24.517 6.90909 23.6987 7.95275 23.6252 8.51032C23.5588 9.01477 23.6908 10.2144 23.3089 10.5867C22.9815 10.906 22.5277 11.1611 22.1595 11.4372C21.5083 11.9256 20.9116 12.4449 20.2 12.8606C19.3525 13.3556 18.4511 13.7534 17.6195 14.2774C16.9001 14.7306 16.2689 15.3432 15.5019 15.7267C15.3624 15.7965 15.0754 15.9346 14.9233 15.9393C14.7185 15.9457 14.5336 15.7968 14.3486 15.7332C14.1601 15.6684 13.9551 15.6542 13.7584 15.6334C13.5027 15.6064 13.2366 15.6631 12.9793 15.6486C12.3138 15.6112 11.6643 15.4079 10.9889 15.4251C10.6577 15.4336 10.4026 15.6244 10.0902 15.692C9.88563 15.7363 9.66678 15.7292 9.46534 15.7896C8.84977 15.9743 8.40341 16.3356 8.01502 16.8289Z" fill="white"/>
</g>
<g opacity="0.0230708" filter="url(#filter18_f_2007_38)">
<path d="M27.0761 9.80121C27.0498 9.86514 26.9331 9.96662 26.997 9.99299C27.061 10.0194 27.0904 9.73355 27.0761 9.80121C27.0538 9.90733 27.0056 10.0063 26.9725 10.1096C26.9466 10.1905 27.0143 10.3119 27.0079 10.398C26.9947 10.5763 26.9367 10.7242 26.9561 10.9104C26.9778 11.1175 27.0928 11.254 27.1552 11.4413C27.3111 11.9089 27.4907 12.3528 27.7144 12.7975C27.8616 13.0902 28.0652 13.3675 28.1971 13.6643C28.3016 13.8994 28.4103 14.1103 28.549 14.3286C28.7667 14.6716 28.8661 14.985 29.2008 15.2338C29.6594 15.5746 30.1844 15.9292 30.7282 16.1191C31.1281 16.2587 31.5622 16.2761 31.9747 16.3584C32.2147 16.4063 32.4523 16.4703 32.692 16.521C33.8554 16.7673 34.9464 16.9945 36.145 16.9123C36.3675 16.897 36.5954 16.8993 36.8132 16.8432C37.0696 16.7772 37.3121 16.6506 37.5605 16.5594C38.1583 16.3398 39.1244 16.1917 39.3961 15.5192C39.4473 15.3926 39.4127 14.6821 39.3007 14.6248C39.2625 14.6053 38.966 15.1898 38.9106 15.2614C38.807 15.3956 38.6702 15.4938 38.5506 15.6128C38.1114 16.0499 38.2646 16.0607 37.5824 16.2525C36.9334 16.4351 36.0307 16.5773 35.3595 16.5563C35.0741 16.5474 34.7871 16.4896 34.503 16.4597C33.9546 16.4018 33.4179 16.3598 32.8775 16.2525C32.3761 16.153 31.8845 16.1592 31.4046 15.9687C31.2125 15.8924 31.0342 15.7819 30.84 15.7079C30.5238 15.5874 30.181 15.5219 29.8963 15.3274C29.5621 15.0991 29.3865 14.7818 29.1299 14.4821C28.9054 14.2198 28.6309 13.9752 28.4317 13.695C28.3341 13.5578 28.2884 13.3611 28.2135 13.2102C28.1103 13.0022 27.9732 12.8172 27.8862 12.5996C27.7209 12.1864 27.632 11.7246 27.5671 11.2863C27.5318 11.0479 27.5237 10.7905 27.4471 10.5606C27.2371 9.93075 27.206 9.82314 27.5262 9.24276C27.605 9.0999 27.6725 8.9531 27.7771 8.827C27.7918 8.80929 27.91 8.67786 27.908 8.67664C27.8201 8.62222 27.6649 8.71297 27.5834 8.74261C27.2697 8.8568 27.0609 9.11259 26.9779 9.42993C26.9687 9.46522 26.9381 9.54157 26.9561 9.57722C26.9943 9.65284 27.0647 9.71728 27.0761 9.80121C27.2135 10.8134 26.9574 9.89278 27.0598 10.2446L27.0761 9.80121Z" fill="#243F17"/>
</g>
</g>
<defs>
<filter id="filter0_f_2007_38" x="-151.678" y="-150.792" width="351.593" height="354.18" filterUnits="userSpaceOnUse" color-interpolation-filters="sRGB">
<feFlood flood-opacity="0" result="BackgroundImageFix"/>
<feBlend mode="normal" in="SourceGraphic" in2="BackgroundImageFix" result="shape"/>
<feGaussianBlur stdDeviation="78.6897" result="effect1_foregroundBlur_2007_38"/>
</filter>
<filter id="filter1_f_2007_38" x="3.64329" y="16.4259" width="15.9418" height="17.755" filterUnits="userSpaceOnUse" color-interpolation-filters="sRGB">
<feFlood flood-opacity="0" result="BackgroundImageFix"/>
<feBlend mode="normal" in="SourceGraphic" in2="BackgroundImageFix" result="shape"/>
<feGaussianBlur stdDeviation="1.22389" result="effect1_foregroundBlur_2007_38"/>
</filter>
<filter id="filter2_f_2007_38" x="23.7035" y="4.07233" width="18.7121" height="16.2269" filterUnits="userSpaceOnUse" color-interpolation-filters="sRGB">
<feFlood flood-opacity="0" result="BackgroundImageFix"/>
<feBlend mode="normal" in="SourceGraphic" in2="BackgroundImageFix" result="shape"/>
<feGaussianBlur stdDeviation="1.77473" result="effect1_foregroundBlur_2007_38"/>
</filter>
<filter id="filter3_f_2007_38" x="-13.1703" y="-14.5395" width="74.8092" height="53.3656" filterUnits="userSpaceOnUse" color-interpolation-filters="sRGB">
<feFlood flood-opacity="0" result="BackgroundImageFix"/>
<feBlend mode="normal" in="SourceGraphic" in2="BackgroundImageFix" result="shape"/>
<feGaussianBlur stdDeviation="10.6243" result="effect1_foregroundBlur_2007_38"/>
</filter>
<filter id="filter4_f_2007_38" x="-5.8281" y="2.23373" width="36.8098" height="36.8483" filterUnits="userSpaceOnUse" color-interpolation-filters="sRGB">
<feFlood flood-opacity="0" result="BackgroundImageFix"/>
<feBlend mode="normal" in="SourceGraphic" in2="BackgroundImageFix" result="shape"/>
<feGaussianBlur stdDeviation="8.5739" result="effect1_foregroundBlur_2007_38"/>
</filter>
<filter id="filter5_f_2007_38" x="18.5289" y="-2.55645" width="25.3909" height="24.8957" filterUnits="userSpaceOnUse" color-interpolation-filters="sRGB">
<feFlood flood-opacity="0" result="BackgroundImageFix"/>
<feBlend mode="normal" in="SourceGraphic" in2="BackgroundImageFix" result="shape"/>
<feGaussianBlur stdDeviation="5.68416" result="effect1_foregroundBlur_2007_38"/>
</filter>
<filter id="filter6_f_2007_38" x="4.55662" y="11.4613" width="39.2619" height="26.4752" filterUnits="userSpaceOnUse" color-interpolation-filters="sRGB">
<feFlood flood-opacity="0" result="BackgroundImageFix"/>
<feBlend mode="normal" in="SourceGraphic" in2="BackgroundImageFix" result="shape"/>
<feGaussianBlur stdDeviation="0.756419" result="effect1_foregroundBlur_2007_38"/>
</filter>
<filter id="filter7_f_2007_38" x="3.48697" y="10.2643" width="41.7546" height="38.2414" filterUnits="userSpaceOnUse" color-interpolation-filters="sRGB">
<feFlood flood-opacity="0" result="BackgroundImageFix"/>
<feBlend mode="normal" in="SourceGraphic" in2="BackgroundImageFix" result="shape"/>
<feGaussianBlur stdDeviation="1.24882" result="effect1_foregroundBlur_2007_38"/>
</filter>
<filter id="filter8_f_2007_38" x="2.92733" y="11.2022" width="40.9522" height="27.33" filterUnits="userSpaceOnUse" color-interpolation-filters="sRGB">
<feFlood flood-opacity="0" result="BackgroundImageFix"/>
<feBlend mode="normal" in="SourceGraphic" in2="BackgroundImageFix" result="shape"/>
<feGaussianBlur stdDeviation="1.47994" result="effect1_foregroundBlur_2007_38"/>
</filter>
<filter id="filter9_f_2007_38" x="-10.0589" y="1.94557" width="60.2075" height="48.6234" filterUnits="userSpaceOnUse" color-interpolation-filters="sRGB">
<feFlood flood-opacity="0" result="BackgroundImageFix"/>
<feBlend mode="normal" in="SourceGraphic" in2="BackgroundImageFix" result="shape"/>
<feGaussianBlur stdDeviation="7.68915" result="effect1_foregroundBlur_2007_38"/>
</filter>
<filter id="filter10_f_2007_38" x="-26.6001" y="-13.0115" width="101.508" height="91.3709" filterUnits="userSpaceOnUse" color-interpolation-filters="sRGB">
<feFlood flood-opacity="0" result="BackgroundImageFix"/>
<feBlend mode="normal" in="SourceGraphic" in2="BackgroundImageFix" result="shape"/>
<feGaussianBlur stdDeviation="16.2527" result="effect1_foregroundBlur_2007_38"/>
</filter>
<filter id="filter11_f_2007_38" x="14.8327" y="4.69873" width="33.4401" height="25.7365" filterUnits="userSpaceOnUse" color-interpolation-filters="sRGB">
<feFlood flood-opacity="0" result="BackgroundImageFix"/>
<feBlend mode="normal" in="SourceGraphic" in2="BackgroundImageFix" result="shape"/>
<feGaussianBlur stdDeviation="3.67873" result="effect1_foregroundBlur_2007_38"/>
</filter>
<filter id="filter12_f_2007_38" x="2.08861" y="1.43218" width="36.5546" height="31.8988" filterUnits="userSpaceOnUse" color-interpolation-filters="sRGB">
<feFlood flood-opacity="0" result="BackgroundImageFix"/>
<feBlend mode="normal" in="SourceGraphic" in2="BackgroundImageFix" result="shape"/>
<feGaussianBlur stdDeviation="6.79224" result="effect1_foregroundBlur_2007_38"/>
</filter>
<filter id="filter13_f_2007_38" x="-52.9228" y="-38.035" width="151.293" height="143.426" filterUnits="userSpaceOnUse" color-interpolation-filters="sRGB">
<feFlood flood-opacity="0" result="BackgroundImageFix"/>
<feBlend mode="normal" in="SourceGraphic" in2="BackgroundImageFix" result="shape"/>
<feGaussianBlur stdDeviation="29.5132" result="effect1_foregroundBlur_2007_38"/>
</filter>
<filter id="filter14_f_2007_38" x="21.0671" y="19.3326" width="4.67263" height="4.83038" filterUnits="userSpaceOnUse" color-interpolation-filters="sRGB">
<feFlood flood-opacity="0" result="BackgroundImageFix"/>
<feBlend mode="normal" in="SourceGraphic" in2="BackgroundImageFix" result="shape"/>
<feGaussianBlur stdDeviation="1.02735" result="effect1_foregroundBlur_2007_38"/>
</filter>
<filter id="filter15_f_2007_38" x="26.1696" y="16.8147" width="4.18429" height="3.97738" filterUnits="userSpaceOnUse" color-interpolation-filters="sRGB">
<feFlood flood-opacity="0" result="BackgroundImageFix"/>
<feBlend mode="normal" in="SourceGraphic" in2="BackgroundImageFix" result="shape"/>
<feGaussianBlur stdDeviation="0.860557" result="effect1_foregroundBlur_2007_38"/>
</filter>
<filter id="filter16_f_2007_38" x="2.05998" y="20.6123" width="43.2686" height="41.9315" filterUnits="userSpaceOnUse" color-interpolation-filters="sRGB">
<feFlood flood-opacity="0" result="BackgroundImageFix"/>
<feBlend mode="normal" in="SourceGraphic" in2="BackgroundImageFix" result="shape"/>
<feGaussianBlur stdDeviation="8.09806" result="effect1_foregroundBlur_2007_38"/>
</filter>
<filter id="filter17_f_2007_38" x="6.29153" y="5.3327" width="20.5689" height="13.3585" filterUnits="userSpaceOnUse" color-interpolation-filters="sRGB">
<feFlood flood-opacity="0" result="BackgroundImageFix"/>
<feBlend mode="normal" in="SourceGraphic" in2="BackgroundImageFix" result="shape"/>
<feGaussianBlur stdDeviation="0.788196" result="effect1_foregroundBlur_2007_38"/>
</filter>
<filter id="filter18_f_2007_38" x="18.5487" y="0.257696" width="29.2726" height="25.0736" filterUnits="userSpaceOnUse" color-interpolation-filters="sRGB">
<feFlood flood-opacity="0" result="BackgroundImageFix"/>
<feBlend mode="normal" in="SourceGraphic" in2="BackgroundImageFix" result="shape"/>
<feGaussianBlur stdDeviation="4.20096" result="effect1_foregroundBlur_2007_38"/>
</filter>
<linearGradient id="paint0_linear_2007_38" x1="21.5" y1="-7" x2="21.5" y2="46" gradientUnits="userSpaceOnUse">
<stop stop-color="#015809"/>
<stop offset="1" stop-color="#3DA806"/>
</linearGradient>
<linearGradient id="paint1_linear_2007_38" x1="18.8165" y1="46.0082" x2="23.5782" y2="8.8837" gradientUnits="userSpaceOnUse">
<stop stop-color="#7EF900"/>
<stop offset="0.709507" stop-color="#ADFB43"/>
<stop offset="1" stop-color="#D4FB91"/>
</linearGradient>
<linearGradient id="paint2_linear_2007_38" x1="18.8165" y1="46.0082" x2="23.5782" y2="8.8837" gradientUnits="userSpaceOnUse">
<stop stop-color="#7EF900"/>
<stop offset="0.709507" stop-color="#ADFB43"/>
<stop offset="1" stop-color="#D4FB91"/>
</linearGradient>
<linearGradient id="paint3_linear_2007_38" x1="17.8717" y1="27.9213" x2="7.75802" y2="24.1552" gradientUnits="userSpaceOnUse">
<stop stop-color="#6BD602"/>
<stop offset="1" stop-color="#E7E7E7" stop-opacity="0.449877"/>
</linearGradient>
<linearGradient id="paint4_linear_2007_38" x1="17.0878" y1="26.2437" x2="7.35428" y2="21.0788" gradientUnits="userSpaceOnUse">
<stop stop-color="#DCDCDC"/>
<stop offset="0.478752" stop-color="white"/>
<stop offset="1" stop-color="white"/>
</linearGradient>
<linearGradient id="paint5_linear_2007_38" x1="25.2306" y1="12.3172" x2="39.3009" y2="7.60081" gradientUnits="userSpaceOnUse">
<stop stop-color="#5BB502"/>
<stop offset="1" stop-color="#E8E8E8" stop-opacity="0.547847"/>
</linearGradient>
<linearGradient id="paint6_linear_2007_38" x1="30.8469" y1="15.0365" x2="34.9806" y2="7.33837" gradientUnits="userSpaceOnUse">
<stop stop-color="#D7D7D7"/>
<stop offset="0.410668" stop-color="white"/>
<stop offset="1" stop-color="white"/>
</linearGradient>
<linearGradient id="paint7_linear_2007_38" x1="7.43555" y1="22.5935" x2="16.8327" y2="22.5935" gradientUnits="userSpaceOnUse">
<stop stop-color="#5BB502"/>
<stop offset="0.243929" stop-color="#5BB502"/>
<stop offset="1" stop-color="#92FD22"/>
</linearGradient>
<linearGradient id="paint8_linear_2007_38" x1="36.3499" y1="7.76473" x2="9.92959" y2="27.2073" gradientUnits="userSpaceOnUse">
<stop stop-color="#5BB502"/>
<stop offset="0.408213" stop-color="#5BB502"/>
<stop offset="1" stop-color="#90FB21"/>
</linearGradient>
<linearGradient id="paint9_linear_2007_38" x1="41.9392" y1="13.0249" x2="5.70154" y2="46.0081" gradientUnits="userSpaceOnUse">
<stop stop-color="white"/>
<stop offset="1" stop-color="white" stop-opacity="0.585569"/>
</linearGradient>
<linearGradient id="paint10_linear_2007_38" x1="42.024" y1="13.237" x2="5.78633" y2="46.2202" gradientUnits="userSpaceOnUse">
<stop stop-color="white"/>
<stop offset="1" stop-color="white" stop-opacity="0.111878"/>
</linearGradient>
<linearGradient id="paint11_linear_2007_38" x1="41.9392" y1="13.0249" x2="5.70154" y2="46.0081" gradientUnits="userSpaceOnUse">
<stop stop-color="white"/>
<stop offset="1" stop-color="white" stop-opacity="0.585569"/>
</linearGradient>
<linearGradient id="paint12_linear_2007_38" x1="19.0001" y1="47.0772" x2="23.7617" y2="9.95273" gradientUnits="userSpaceOnUse">
<stop stop-color="#6ED800"/>
<stop offset="0.709507" stop-color="#9EFB21"/>
<stop offset="1" stop-color="#C5FA68"/>
</linearGradient>
<clipPath id="clip0_2007_38">
<rect width="48" height="46" rx="12" fill="white"/>
</clipPath>
</defs>
</svg>
