<svg width="26" height="28" viewBox="0 0 26 28" fill="none" xmlns="http://www.w3.org/2000/svg">
<path d="M11.2067 23.9329C8.02839 24.8293 5.70749 23.3886 4.94433 22.5562C2.98066 20.5572 3.67194 17.0958 4.0972 15.6961C4.4374 14.5763 4.36568 13.3592 4.28729 12.8907C3.60742 11.9765 1.90491 9.69916 0.533861 7.90363C-0.83719 6.10811 0.753665 4.85084 1.72047 4.44664C2.82071 4.51147 4.98287 5.23523 4.82963 7.61163C4.6764 9.98802 6.10985 12.1914 6.84573 12.996C7.11993 13.1085 7.93515 13.0387 9.00243 11.8594C10.0697 10.68 10.5273 5.24798 10.0595 3.2724C9.71484 1.81654 11.0571 -0.077165 12.5755 0.00239537C14.0939 0.0819557 14.9055 2.76718 14.355 4.14627C13.078 7.34474 9.91323 13.4196 12.2826 14.3654C14.6519 15.3111 18.5271 11.5588 20.1686 9.56446C21.1715 8.19737 23.57 5.86298 25.1409 7.46212C26.7119 9.06127 24.3352 11.4179 22.9504 12.3963C19.8825 13.8826 13.8727 17.5168 14.3776 20.1633C14.8824 22.8097 18.8095 23.1199 20.71 22.9441C21.4532 22.9232 22.9519 23.3604 23.0009 25.2762C23.0499 27.1921 20.8647 27.2112 19.7659 26.9812C18.2371 25.5916 14.385 23.0365 11.2067 23.9329Z" fill="#FF4C85"/>
</svg>
