<svg width="631" height="630" viewBox="0 0 631 630" fill="none" xmlns="http://www.w3.org/2000/svg">
<g clip-path="url(#clip0_2007_117)">
<rect width="631" height="630" fill="white"/>
<path d="M631.25 0H0V631.25H631.25V0Z" fill="url(#paint0_linear_2007_117)"/>
<g filter="url(#filter0_f_2007_117)">
<path d="M283.664 631.347L277.737 558.982C277.737 558.982 143.209 543.412 130.832 508.474C118.455 473.536 144.139 444 144.139 444C144.139 444 115.104 297.469 166.856 271.353C208.212 250.482 224.762 281.035 246.018 268.26C267.076 255.603 335.515 213.179 335.515 213.179C335.515 213.179 338.296 205.391 340.377 189.18C343.406 165.581 358.481 164.087 358.481 164.087C358.481 164.087 389.133 154.867 413.596 173.667C438.06 192.466 513.51 223.629 513.51 223.629C513.51 223.629 546.476 221.465 559.064 238.504C571.653 255.544 568.65 358.627 540.74 405.981C513.589 464.265 481.38 540.464 495.424 606.343C501.597 631.347 502.212 631.347 502.212 631.347H283.664Z" fill="url(#paint1_linear_2007_117)"/>
</g>
<path d="M283.664 631.347L277.737 558.982C277.737 558.982 143.209 543.412 130.832 508.474C118.455 473.536 144.139 444 144.139 444C144.139 444 115.104 297.469 166.856 271.353C208.212 250.482 224.762 281.035 246.018 268.26C267.076 255.603 335.515 213.179 335.515 213.179C335.515 213.179 338.296 205.391 340.377 189.18C343.406 165.581 358.481 164.087 358.481 164.087C358.481 164.087 389.133 154.867 413.596 173.667C438.06 192.466 513.51 223.629 513.51 223.629C513.51 223.629 546.476 221.465 559.064 238.504C571.653 255.544 568.65 358.627 540.74 405.981C513.589 464.265 481.38 540.464 495.424 606.343C501.597 631.347 502.212 631.347 502.212 631.347H283.664Z" fill="url(#paint2_linear_2007_117)"/>
<g opacity="0.413858" filter="url(#filter1_f_2007_117)">
<path d="M194.69 308.204C194.69 308.204 147.925 323.276 135.91 363.985C123.895 404.694 144.139 444 144.139 444C144.139 444 163.052 467.098 194.66 459.957C226.267 452.816 261.877 412.199 263.38 388.699C264.883 365.199 259.967 353.134 259.967 353.134C259.967 353.134 247.918 306.64 194.69 308.204Z" fill="url(#paint3_linear_2007_117)"/>
</g>
<path d="M194.69 302.019C194.69 302.019 153.305 307.073 134.399 355.877C119.067 395.456 142.628 435.892 142.628 435.892C142.628 435.892 161.541 458.99 193.149 451.849C224.756 444.708 260.365 404.091 261.869 380.591C263.372 357.091 258.456 345.026 258.456 345.026C258.456 345.026 242.859 295.668 194.69 302.019Z" fill="url(#paint4_linear_2007_117)"/>
<g opacity="0.467625" filter="url(#filter2_f_2007_117)">
<path d="M384.145 201.693C384.145 201.693 391.349 254.718 426.546 269.8C461.743 284.882 489.088 284.191 503.42 281.005C517.751 277.818 522.463 267.139 522.463 267.139C522.463 267.139 522.75 240.427 499.522 204.293C497.205 200.689 495.033 197.228 490.476 193.921C458.526 170.732 407.003 161.803 384.145 201.693Z" fill="url(#paint5_linear_2007_117)"/>
</g>
<path d="M383.419 198.699C383.419 198.699 390.639 250.367 425.917 265.064C461.195 279.76 488.603 279.087 502.968 275.982C541.982 265.914 505.564 211.341 499.061 201.232C496.739 197.72 494.472 195.454 489.994 191.125C461.819 163.881 406.329 159.829 383.419 198.699Z" fill="url(#paint6_linear_2007_117)"/>
<path d="M238.697 363.651C241.353 363.651 243.505 360.14 243.505 355.809C243.505 351.478 241.353 347.967 238.697 347.967C236.042 347.967 233.889 351.478 233.889 355.809C233.889 360.14 236.042 363.651 238.697 363.651Z" fill="white" fill-opacity="0.642697"/>
<path opacity="0.458934" d="M204.076 301.39C196.727 301.39 189.449 302.711 182.66 305.278C175.87 307.845 169.7 311.608 164.504 316.351C159.307 321.094 155.185 326.725 152.372 332.922C149.56 339.12 148.112 345.762 148.112 352.47C148.112 359.178 149.56 365.82 152.372 372.018C155.185 378.215 159.307 383.846 164.504 388.589C169.7 393.332 175.87 397.095 182.66 399.662C189.449 402.229 196.727 403.55 204.076 403.55C218.918 403.549 233.151 398.167 243.646 388.588C254.141 379.009 260.036 366.017 260.036 352.47C260.035 351.754 260.018 351.039 259.984 350.324C259.178 346.814 258.456 345.026 258.456 345.026C258.456 345.026 249.657 311.099 213.908 302.186C210.663 301.657 207.372 301.391 204.076 301.39Z" fill="url(#paint7_linear_2007_117)"/>
<g opacity="0.16829" filter="url(#filter3_f_2007_117)">
<path d="M164.034 272.812C162.885 273.941 159.46 275.049 160.588 276.198C161.716 277.346 165.223 271.727 164.034 272.812C163.428 273.365 153.925 280.197 156.086 283.304C157.411 285.21 160.313 284.372 162.058 283.717C166.004 282.238 168.942 278.515 172.9 276.895C176.721 275.332 180.893 276.341 184.891 276.068C187.511 275.89 189.604 275.509 192.241 276.223C193.791 276.643 195.231 277.723 196.744 278.058C198.884 278.533 201.473 278.486 203.497 279.454C206.471 280.875 208.723 283.221 211.629 284.7C214.3 286.059 223.233 288.505 226.376 288.369C227.761 288.309 229.646 287.138 230.97 286.664C235.038 285.207 239.589 284.577 243.512 282.71C249.617 279.804 254.942 275.393 261.475 273.407C262.265 273.166 263.557 272.674 264.415 272.735C266.303 272.868 268.31 273.858 270.249 274.13C272.428 274.437 275.096 274.111 277.187 274.699C278.563 275.086 278.24 276.812 280.402 276.74C281.334 276.71 282.518 275.812 283.48 275.603C286.075 275.042 288.758 274.633 291.382 274.285C302.423 272.824 315.247 271.18 326.389 272.89C332.438 273.818 342.542 274.969 346.971 280.177C349.009 282.574 345.575 287.969 350.371 291.341C350.758 291.613 351.287 292.438 351.703 292.581C353.243 293.111 355.968 292.039 357.629 292.039C363.076 292.039 368.39 291.948 373.847 291.548C386.889 290.591 399.972 289.79 413.034 289.532C419.792 289.399 426.585 290.585 433.34 290.85C440.169 291.118 447.014 290.471 453.876 290.669C458.341 290.798 462.914 291.601 467.383 291.496C478.525 291.235 489.51 287.728 500.368 285.63C510.219 283.727 524.31 282.341 531.379 274.389C532.108 273.568 533.243 273.276 533.859 272.321C538.575 265.027 538.133 260.039 539.372 251.906C540.455 244.803 542.392 240.497 536.983 234.411C536.335 233.682 535.322 232.22 534.365 231.801C532.287 230.892 529.824 230.731 527.657 230.122C519.452 227.814 508.377 225.869 501.195 221.646C496.516 218.894 491.871 215.442 486.954 213.169C478.6 209.31 469.595 206.418 461.456 202.135C457.978 200.304 455.339 197.812 452.084 195.752C447.044 192.562 441.19 189.501 435.454 187.741C433.097 187.018 430.711 186.238 428.608 184.924C427.128 183.999 426.182 182.295 424.566 181.487C423.286 180.847 421.828 180.834 420.477 180.454C418.83 179.99 416.952 178.69 415.515 177.792C413.631 176.614 412.494 174.404 410.462 173.425C400.911 168.82 391.06 164.595 380.416 163.398C377.26 163.043 373.846 163.597 370.677 163.734C364.095 164.019 358.959 164.484 352.714 166.757C349.412 167.959 346.319 173.296 345.225 176.371C344.558 178.249 344.916 180.473 344.444 182.418C343.681 185.568 341.509 188.261 340.815 191.385C339.798 195.962 338.692 200.539 337.737 205.107C337.291 207.237 338.245 210.245 337.002 212.11C335.208 214.801 330.935 215.912 328.227 217.537C325.408 219.228 323.377 221.952 320.601 223.687C317.271 225.768 313.736 227.557 310.494 229.786C295.668 239.978 280.892 250.18 265.517 259.633C260.532 262.698 255.953 266.313 250.633 268.807C248.279 269.91 244.223 272.335 241.628 272.399C239.631 272.448 237.632 271.137 235.61 271.003C224.361 270.259 213.217 268.298 201.889 267.644C193.788 267.177 185.132 266.579 177.127 268.187C175.355 268.543 174.125 269.797 172.487 270.435C169.654 271.538 167.034 272.179 164.034 272.812Z" fill="white"/>
</g>
<path opacity="0.579546" d="M439.289 175.853C413.895 175.871 392.053 192.011 387.128 214.403C392.818 232.659 402.561 252.621 420.137 261.606C453.092 273.072 492.491 248.642 492.493 223.678C492.493 197.266 468.673 175.854 439.289 175.853Z" fill="url(#paint8_linear_2007_117)"/>
<path d="M437.921 253.052C462.304 253.052 482.071 237.358 482.071 217.999C482.071 198.64 462.304 182.946 437.921 182.946C413.537 182.946 393.77 198.64 393.77 217.999C393.77 237.358 413.537 253.052 437.921 253.052Z" fill="black"/>
<path d="M130.832 508.474C130.832 508.474 137.96 494.518 143.714 494.783C149.469 495.05 161.669 500.726 178.231 497.181C194.793 493.635 213.748 480.926 213.748 480.926L349.167 379.701C349.167 379.701 423.316 317.656 477.67 311.918C532.024 306.18 547.567 277.798 547.567 277.798C547.567 277.798 553.143 265.642 548.105 246.599C543.068 227.556 559.064 238.504 559.064 238.504C559.064 238.504 571.424 268.068 568.074 302.578C565.351 330.616 561.96 365.619 540.74 405.982C517.661 462.122 483.253 536.359 494.109 598.8C498.233 617.509 502.213 631.347 502.213 631.347H295.764L285.507 561.009L277.737 558.982C277.737 558.982 208.864 548.687 186.127 540.829C163.389 532.971 154.171 528.844 143.584 522.769C133.381 516.913 134.195 515.381 130.832 508.474Z" fill="url(#paint9_linear_2007_117)"/>
<path d="M205.054 389.601C229.828 389.601 249.912 371.46 249.912 349.083C249.912 326.705 229.828 308.565 205.054 308.565C180.279 308.565 160.195 326.705 160.195 349.083C160.195 371.46 180.279 389.601 205.054 389.601Z" fill="black"/>
<g filter="url(#filter4_f_2007_117)">
<path d="M209.346 344.617C217.614 344.617 224.318 337.811 224.318 329.415C224.318 321.02 217.614 314.214 209.346 314.214C201.077 314.214 194.374 321.02 194.374 329.415C194.374 337.811 201.077 344.617 209.346 344.617Z" fill="#A5A5A5"/>
</g>
<g opacity="0.94272" filter="url(#filter5_f_2007_117)">
<path d="M431.445 214.041C440.175 214.041 447.252 208.284 447.252 201.183C447.252 194.082 440.175 188.325 431.445 188.325C422.715 188.325 415.638 194.082 415.638 201.183C415.638 208.284 422.715 214.041 431.445 214.041Z" fill="#808080"/>
</g>
<g filter="url(#filter6_f_2007_117)">
<path d="M551.482 237.926C548.735 238.204 546.911 240.792 549.115 249.124C554.152 268.167 548.576 280.325 548.576 280.325C548.576 280.325 533.034 308.706 478.68 314.444C424.326 320.183 350.176 382.227 350.176 382.227L214.757 483.452C214.757 483.452 195.804 496.16 179.242 499.706C162.68 503.251 150.479 497.577 144.724 497.311C138.969 497.045 131.843 511.001 131.843 511.001C133.153 513.691 133.839 515.56 134.779 517.192C134.976 516.832 134.964 516.832 135.278 516.292C135.657 515.64 136.116 514.879 136.634 514.066C137.153 513.253 137.733 512.386 138.358 511.522C138.984 510.658 139.653 509.797 140.352 508.992C140.701 508.59 141.059 508.202 141.42 507.835C141.782 507.468 142.147 507.121 142.517 506.803C142.886 506.485 143.258 506.197 143.631 505.943C144.004 505.688 144.379 505.469 144.752 505.29C145.125 505.112 145.495 504.974 145.863 504.886C146.047 504.845 146.232 504.813 146.414 504.794C146.597 504.777 146.777 504.771 146.956 504.777C147.316 504.795 147.701 504.83 148.111 504.887C148.52 504.94 148.954 505.014 149.412 505.102C150.329 505.275 151.344 505.506 152.45 505.763C153.555 506.02 154.754 506.306 156.041 506.59C157.328 506.873 158.703 507.155 160.163 507.407C160.893 507.533 161.645 507.651 162.416 507.759C163.188 507.867 163.98 507.962 164.792 508.044C165.605 508.126 166.436 508.194 167.288 508.243C168.14 508.291 169.012 508.326 169.903 508.335C170.793 508.347 171.703 508.33 172.631 508.294C173.559 508.258 174.508 508.195 175.472 508.104C176.437 508.012 177.421 507.889 178.421 507.736C179.422 507.584 180.439 507.398 181.474 507.176C182.509 506.955 183.555 506.698 184.603 506.411C185.652 506.123 186.702 505.805 187.754 505.461C188.806 505.118 189.857 504.747 190.902 504.359C191.946 503.971 192.983 503.563 194.01 503.14C195.036 502.718 196.052 502.282 197.05 501.836C198.048 501.39 199.03 500.935 199.99 500.476C201.909 499.559 203.741 498.626 205.443 497.721C207.145 496.816 208.717 495.937 210.119 495.13C211.52 494.323 212.754 493.586 213.771 492.962C215.807 491.716 216.99 490.923 216.99 490.923L352.411 389.698C352.411 389.698 353.569 388.729 355.703 387.022C356.77 386.168 358.078 385.129 359.61 383.935C361.141 382.741 362.896 381.388 364.846 379.912C366.796 378.435 368.944 376.833 371.267 375.132C373.59 373.431 376.088 371.632 378.738 369.764C381.388 367.896 384.19 365.957 387.122 363.98C390.053 362.003 393.113 359.986 396.28 357.957C397.863 356.943 399.472 355.927 401.105 354.911C402.739 353.895 404.394 352.878 406.072 351.867C407.75 350.856 409.45 349.85 411.167 348.851C412.884 347.853 414.617 346.863 416.366 345.884C418.116 344.905 419.884 343.936 421.66 342.984C423.437 342.032 425.227 341.098 427.025 340.18C428.824 339.262 430.63 338.362 432.445 337.485C434.259 336.609 436.08 335.753 437.904 334.925C439.729 334.097 441.556 333.297 443.385 332.525C445.214 331.752 447.042 331.011 448.869 330.302C450.696 329.593 452.524 328.917 454.344 328.278C456.164 327.639 457.978 327.036 459.785 326.474C461.592 325.913 463.391 325.392 465.18 324.916C466.969 324.439 468.747 324.005 470.511 323.621C472.275 323.235 474.028 322.899 475.762 322.613C477.497 322.328 479.214 322.094 480.912 321.915C482.611 321.735 484.271 321.534 485.894 321.312C487.518 321.09 489.106 320.848 490.656 320.586C492.205 320.325 493.719 320.042 495.197 319.744C496.674 319.446 498.116 319.132 499.523 318.801C500.93 318.47 502.301 318.121 503.638 317.76C504.976 317.399 506.279 317.025 507.549 316.636C508.818 316.247 510.051 315.845 511.253 315.433C512.456 315.02 513.628 314.596 514.766 314.162C515.903 313.728 517.008 313.285 518.082 312.833C519.156 312.382 520.199 311.924 521.211 311.458C522.223 310.993 523.203 310.521 524.154 310.044C525.104 309.566 526.024 309.081 526.915 308.595C527.807 308.11 528.667 307.623 529.5 307.132C530.333 306.641 531.139 306.146 531.916 305.653C532.692 305.16 533.439 304.666 534.16 304.174C534.881 303.682 535.578 303.189 536.245 302.701C537.58 301.724 538.807 300.762 539.935 299.82C541.063 298.878 542.091 297.958 543.024 297.076C543.958 296.194 544.798 295.351 545.547 294.553C546.297 293.756 546.955 293.006 547.532 292.318C548.108 291.63 548.601 291.003 549.017 290.45C549.432 289.897 549.771 289.417 550.036 289.023C550.567 288.236 550.811 287.792 550.811 287.792C550.811 287.792 550.898 287.605 551.041 287.235C551.184 286.865 551.379 286.315 551.601 285.597C551.824 284.878 552.071 283.989 552.309 282.942C552.428 282.419 552.546 281.857 552.658 281.255C552.769 280.653 552.872 280.013 552.967 279.335C553.062 278.658 553.15 277.942 553.221 277.192C553.293 276.441 553.352 275.655 553.393 274.834C553.434 274.013 553.456 273.157 553.457 272.268C553.458 271.379 553.433 270.458 553.39 269.503C553.342 268.549 553.27 267.562 553.169 266.545C553.067 265.528 552.936 264.481 552.771 263.404C552.606 262.326 552.41 261.22 552.174 260.085C551.938 258.949 551.662 257.784 551.347 256.594C551.19 255.999 551.054 255.435 550.937 254.898C550.82 254.36 550.723 253.85 550.643 253.367C550.563 252.884 550.501 252.425 550.457 251.995C550.415 251.564 550.385 251.16 550.374 250.779C550.362 250.398 550.368 250.044 550.386 249.711C550.404 249.377 550.439 249.065 550.49 248.777C550.538 248.488 550.599 248.221 550.674 247.975C550.749 247.728 550.838 247.504 550.937 247.298C551.036 247.091 551.144 246.903 551.265 246.734C551.386 246.565 551.52 246.413 551.66 246.278C551.8 246.144 551.949 246.028 552.107 245.926C552.265 245.824 552.43 245.738 552.603 245.666C552.776 245.594 552.956 245.536 553.142 245.492C553.327 245.444 553.518 245.414 553.714 245.394C554.107 245.353 554.518 245.364 554.939 245.406C555.36 245.453 555.79 245.533 556.222 245.642C556.654 245.751 557.087 245.886 557.511 246.04C557.935 246.193 558.352 246.364 558.751 246.542C559.15 246.72 559.532 246.905 559.887 247.087C560.598 247.452 561.202 247.805 561.629 248.067C562.057 248.329 562.309 248.502 562.309 248.502C562.309 248.502 562.437 248.794 562.658 249.359C562.846 249.839 563.128 250.618 563.43 251.481C561.715 244.808 560.074 241.034 560.074 241.034C560.074 241.034 555.014 237.568 551.482 237.926Z" fill="url(#paint10_linear_2007_117)"/>
</g>
<g opacity="0.0240827" filter="url(#filter7_f_2007_117)">
<path d="M130.832 508.474C130.832 508.474 137.96 494.518 143.714 494.783C149.469 495.05 161.669 500.726 178.231 497.181C194.793 493.635 213.748 480.926 213.748 480.926L349.167 379.701C349.167 379.701 423.316 317.656 477.67 311.918C532.024 306.18 547.567 277.798 547.567 277.798C547.567 277.798 553.143 265.642 548.105 246.599C543.068 227.556 559.064 238.504 559.064 238.504C559.064 238.504 571.424 268.068 568.074 302.578C565.351 330.616 561.96 365.619 540.74 405.982C517.661 462.122 483.253 536.359 494.109 598.8C498.233 617.509 502.213 631.347 502.213 631.347H295.764L285.507 561.009L277.737 558.982C277.737 558.982 208.864 548.687 186.127 540.829C163.389 532.971 154.171 528.844 143.584 522.769C133.381 516.913 134.195 515.381 130.832 508.474Z" fill="url(#paint11_linear_2007_117)"/>
</g>
<g filter="url(#filter8_f_2007_117)">
<path d="M130.485 491.714C129.704 496.525 129.421 501.671 129.918 507.052C129.986 506.945 130.029 506.861 130.099 506.752C130.618 505.939 131.197 505.075 131.823 504.211C132.448 503.347 133.117 502.483 133.816 501.678C134.165 501.276 134.523 500.888 134.885 500.521C135.246 500.154 135.611 499.81 135.981 499.492C136.35 499.174 136.722 498.883 137.095 498.629C137.469 498.374 137.843 498.155 138.216 497.976C138.589 497.798 138.959 497.66 139.328 497.572C139.512 497.531 139.696 497.499 139.879 497.481C140.061 497.463 140.241 497.457 140.421 497.463C140.78 497.48 141.166 497.516 141.575 497.57C141.985 497.623 142.418 497.7 142.876 497.787C143.793 497.961 144.808 498.189 145.914 498.446C147.02 498.703 148.219 498.989 149.506 499.273C150.793 499.556 152.167 499.838 153.627 500.09C154.357 500.216 155.109 500.334 155.881 500.442C156.652 500.55 157.444 500.648 158.257 500.73C159.069 500.812 159.9 500.877 160.752 500.926C161.604 500.974 162.476 501.009 163.367 501.018C164.258 501.03 165.167 501.016 166.095 500.976C167.024 500.941 167.972 500.875 168.937 500.783C169.902 500.691 170.882 500.569 171.882 500.416C172.883 500.263 173.903 500.077 174.938 499.855C175.973 499.634 177.016 499.378 178.064 499.09C179.113 498.802 180.167 498.484 181.218 498.141C182.27 497.797 183.322 497.427 184.366 497.038C185.41 496.65 186.447 496.242 187.474 495.82C188.5 495.397 189.516 494.961 190.514 494.515C191.513 494.069 192.494 493.615 193.454 493.156C195.373 492.238 197.205 491.305 198.907 490.4C200.61 489.495 202.181 488.616 203.583 487.81C204.985 487.003 206.215 486.268 207.233 485.645C209.269 484.398 210.454 483.602 210.454 483.602L345.872 382.377C345.872 382.377 347.033 381.409 349.167 379.701C350.234 378.847 351.543 377.809 353.074 376.614C354.605 375.42 356.36 374.071 358.31 372.594C360.26 371.117 362.408 369.512 364.731 367.811C367.054 366.11 369.552 364.312 372.202 362.444C374.852 360.576 377.655 358.637 380.586 356.66C383.517 354.682 386.575 352.665 389.741 350.637C391.324 349.622 392.936 348.606 394.57 347.59C396.203 346.574 397.858 345.557 399.536 344.547C401.214 343.535 402.915 342.529 404.631 341.53C406.348 340.532 408.081 339.542 409.831 338.563C411.58 337.584 413.345 336.616 415.122 335.664C416.899 334.712 418.688 333.777 420.486 332.859C422.285 331.941 424.095 331.041 425.909 330.164C427.723 329.288 429.544 328.433 431.368 327.605C433.193 326.777 435.021 325.976 436.849 325.204C438.678 324.432 440.506 323.69 442.333 322.981C444.161 322.272 445.988 321.596 447.808 320.957C449.628 320.318 451.442 319.715 453.249 319.154C455.057 318.592 456.856 318.072 458.644 317.595C460.433 317.118 462.211 316.685 463.975 316.3C465.74 315.915 467.492 315.578 469.227 315.293C470.961 315.007 472.678 314.773 474.377 314.594C476.075 314.415 477.735 314.213 479.359 313.991C480.982 313.769 482.57 313.527 484.12 313.265C485.67 313.004 487.183 312.724 488.661 312.426C490.138 312.128 491.578 311.812 492.984 311.48C494.391 311.149 495.765 310.801 497.103 310.439C498.44 310.078 499.74 309.704 501.01 309.316C502.279 308.927 503.515 308.525 504.718 308.112C505.921 307.7 507.092 307.275 508.23 306.842C509.367 306.408 510.472 305.967 511.546 305.516C512.62 305.064 513.661 304.604 514.672 304.138C515.684 303.672 516.664 303.2 517.615 302.723C518.565 302.245 519.489 301.764 520.38 301.278C521.271 300.792 522.131 300.302 522.964 299.811C523.797 299.32 524.603 298.826 525.38 298.332C526.156 297.839 526.903 297.346 527.624 296.853C528.346 296.361 529.039 295.872 529.706 295.384C531.041 294.407 532.271 293.441 533.399 292.499C534.528 291.557 535.556 290.638 536.489 289.756C537.422 288.874 538.26 288.03 539.009 287.233C539.758 286.435 540.419 285.685 540.996 284.997C541.572 284.31 542.066 283.683 542.481 283.13C542.896 282.577 543.235 282.099 543.501 281.706C544.032 280.919 544.272 280.475 544.272 280.475C544.272 280.475 544.359 280.284 544.502 279.914C544.645 279.545 544.843 278.995 545.066 278.276C545.288 277.558 545.535 276.671 545.773 275.624C545.892 275.101 546.008 274.536 546.119 273.934C546.23 273.333 546.336 272.692 546.431 272.015C546.527 271.337 546.614 270.625 546.685 269.874C546.757 269.124 546.816 268.334 546.857 267.513C546.898 266.692 546.92 265.84 546.921 264.951C546.922 264.062 546.897 263.137 546.854 262.183C546.806 261.228 546.735 260.242 546.633 259.225C546.531 258.208 546.4 257.161 546.235 256.083C546.07 255.006 545.871 253.899 545.635 252.764C545.587 252.531 545.518 252.283 545.467 252.047C545.468 252.224 545.478 252.415 545.478 252.59C545.478 253.479 545.455 254.331 545.414 255.152C545.372 255.973 545.314 256.763 545.243 257.513C545.171 258.264 545.084 258.976 544.988 259.654C544.893 260.331 544.788 260.972 544.676 261.573C544.565 262.175 544.449 262.74 544.33 263.263C544.092 264.31 543.845 265.197 543.623 265.915C543.401 266.634 543.202 267.184 543.059 267.553C542.917 267.923 542.829 268.114 542.829 268.114C542.829 268.114 542.589 268.558 542.058 269.345C541.792 269.738 541.454 270.216 541.038 270.769C540.623 271.321 540.13 271.949 539.553 272.637C538.977 273.324 538.315 274.074 537.566 274.872C536.817 275.669 535.979 276.513 535.046 277.395C534.113 278.277 533.085 279.196 531.956 280.138C531.392 280.609 530.802 281.087 530.187 281.568C529.571 282.049 528.931 282.534 528.264 283.023C527.596 283.511 526.903 284 526.182 284.492C525.46 284.985 524.714 285.478 523.937 285.971C523.161 286.464 522.354 286.959 521.521 287.45C520.688 287.941 519.828 288.431 518.937 288.917C518.046 289.403 517.123 289.885 516.172 290.362C515.221 290.84 514.241 291.311 513.229 291.777C512.218 292.243 511.177 292.704 510.103 293.155C509.029 293.606 507.925 294.047 506.787 294.481C505.65 294.914 504.478 295.339 503.275 295.751C502.072 296.164 500.836 296.566 499.567 296.955C498.298 297.343 496.997 297.717 495.66 298.078C494.323 298.44 492.948 298.788 491.542 299.119C490.135 299.451 488.696 299.768 487.218 300.066C485.741 300.364 484.227 300.643 482.677 300.904C481.127 301.166 479.539 301.408 477.916 301.63C476.292 301.853 474.633 302.054 472.934 302.233C472.085 302.323 471.23 302.426 470.371 302.543C469.513 302.659 468.651 302.789 467.784 302.931C466.049 303.217 464.297 303.554 462.533 303.939C460.768 304.324 458.99 304.757 457.202 305.234C455.413 305.71 453.614 306.231 451.806 306.792C449.999 307.354 448.186 307.957 446.365 308.596C444.545 309.235 442.718 309.911 440.891 310.62C439.063 311.329 437.235 312.071 435.407 312.843C433.578 313.615 431.75 314.416 429.926 315.244C428.101 316.071 426.28 316.927 424.466 317.803C422.652 318.68 420.842 319.58 419.043 320.498C417.245 321.416 415.456 322.351 413.679 323.303C411.902 324.255 410.137 325.223 408.388 326.202C406.638 327.181 404.905 328.171 403.189 329.169C401.472 330.168 399.771 331.174 398.094 332.186C396.416 333.197 394.76 334.213 393.127 335.229C391.494 336.245 389.882 337.261 388.298 338.276C385.132 340.304 382.074 342.321 379.143 344.299C376.212 346.276 373.409 348.215 370.759 350.083C368.109 351.951 365.611 353.749 363.288 355.45C360.965 357.151 358.817 358.756 356.867 360.233C354.917 361.71 353.163 363.059 351.631 364.253C350.1 365.447 348.791 366.486 347.724 367.34C345.591 369.048 344.43 370.016 344.43 370.016L209.011 471.241C209.011 471.241 207.826 472.037 205.79 473.284C204.772 473.907 203.542 474.642 202.14 475.449C200.738 476.255 199.167 477.134 197.465 478.039C195.762 478.944 193.93 479.877 192.011 480.795C191.051 481.253 190.07 481.708 189.072 482.154C188.073 482.6 187.058 483.036 186.031 483.459C185.005 483.881 183.968 484.289 182.923 484.677C181.879 485.065 180.827 485.436 179.776 485.78C178.724 486.123 177.67 486.441 176.622 486.729C175.573 487.017 174.531 487.273 173.495 487.494C172.46 487.716 171.44 487.902 170.44 488.055C169.439 488.208 168.459 488.33 167.494 488.422C166.529 488.514 165.581 488.579 164.652 488.615C163.724 488.656 162.815 488.668 161.924 488.656C161.034 488.644 160.161 488.609 159.309 488.564C158.457 488.517 157.626 488.451 156.814 488.368C156.002 488.286 155.209 488.188 154.438 488.08C153.666 487.973 152.914 487.855 152.184 487.728C150.724 487.476 149.35 487.194 148.063 486.911C146.776 486.628 145.577 486.341 144.471 486.084C143.365 485.827 142.35 485.599 141.434 485.426C140.975 485.339 140.542 485.262 140.132 485.208C139.723 485.155 139.338 485.119 138.978 485.101C138.798 485.095 138.618 485.099 138.436 485.119C138.254 485.137 138.069 485.166 137.885 485.211C137.516 485.298 137.146 485.436 136.773 485.615C136.4 485.793 136.026 486.012 135.653 486.267C135.279 486.522 134.907 486.813 134.538 487.131C134.169 487.448 133.803 487.793 133.442 488.159C133.08 488.526 132.723 488.914 132.373 489.317C132.024 489.719 131.68 490.138 131.347 490.563C131.05 490.942 130.766 491.329 130.485 491.714Z" fill="url(#paint12_linear_2007_117)"/>
</g>
<g opacity="0.337071" filter="url(#filter9_f_2007_117)">
<path d="M144.552 445.248C140.983 444.813 137.845 454.239 136.612 455.472C136.394 455.689 135.819 455.193 135.689 455.472C134.752 456.2 136.055 457.391 135.689 458.238C135.014 459.799 133.366 460.407 132.668 461.803C131.884 463.37 132.797 464.294 131.8 465.762C131.378 466.383 130.317 466.238 129.786 466.769C128.849 467.706 127.695 472.598 126.797 473.644C126.618 473.852 126.078 473.39 125.973 473.644C125.646 474.44 125.564 476.041 124.966 476.639C124.732 476.873 124.22 476.419 123.972 476.639C123.834 476.76 124.081 478.002 123.972 478.208C121.856 482.235 123.291 494.271 124.855 497.527C125.313 498.48 129.687 501.441 130.143 502.052C131.849 504.336 132.554 497.276 134.036 497.276C136 497.276 133.532 497.52 134.767 496.269C135.302 495.728 138.111 495.722 138.505 495.297C138.733 495.051 138.269 494.529 138.505 494.29C138.898 493.774 139.897 494.72 140.326 494.29C140.776 493.841 142.235 491.796 143.836 492.511C147.472 494.133 154.032 492.107 156.664 493.517C161.613 496.17 170.587 494.477 176.478 494.477C179.137 494.477 190.215 495.371 191.769 494.477C192.798 493.885 197.11 492.065 197.72 491.456C197.957 491.219 197.484 490.688 197.72 490.449C197.952 490.213 198.438 490.633 198.714 490.449C201.416 488.644 203.326 486.897 206.195 485.703C207.871 485.005 206.309 483.939 207.987 483.098C209.058 482.562 214.809 478.355 215.127 477.719C215.278 477.419 214.89 476.949 215.127 476.712C216.503 475.336 218.857 474.78 220.352 473.992C222.573 472.822 223.903 470.006 226.182 468.957C227.669 468.273 228.146 469.287 229.955 468.088C230.581 467.673 230.291 466.41 230.962 466.074C232.2 465.455 233.753 465.688 234.99 465.067C235.847 464.637 236.166 463.464 237.023 463.034C238.26 462.414 239.766 462.541 241.051 462.027C242.751 461.347 245.458 459.824 247.092 459.007C249.426 457.84 251.785 455.386 254.101 453.999C256.321 452.67 258.901 452.623 260.109 452.019C262.286 450.93 264.064 448.371 266.118 447.017C268.663 445.339 267.96 446.616 271.119 445.036C272.748 444.222 276.223 441.408 277.161 440.001C277.347 439.722 276.861 439.145 277.161 438.994C277.761 438.694 278.574 439.295 279.175 438.994C279.475 438.844 278.938 438.225 279.175 437.988C279.706 437.457 280.656 437.51 281.189 436.981C281.424 436.747 280.954 436.22 281.189 435.986C282.598 434.585 285.5 432.82 287.105 431.989C288.838 431.092 290.379 427.743 290.96 427.193C291.731 426.463 293.098 426.775 293.981 426.186C297.53 423.82 297.016 422.666 301.715 420.317C303.234 419.557 302.508 418.517 303.716 417.309C303.953 417.072 304.422 417.459 304.723 417.309C306.982 416.179 308.595 413.359 310.764 412.274C314.007 410.653 329.08 393.647 330.791 390.404C331.956 388.198 333.528 388.807 334.72 386.421C336.275 383.313 342.254 382.212 344.363 381.124C345.569 380.503 351.623 374.617 352.427 373.709C353.289 372.733 353.934 370.826 355.41 369.845C356.035 369.43 356.893 369.369 357.424 368.838C357.954 368.308 357.905 367.36 358.431 366.824C360.843 364.368 365.478 362.242 366.822 359.365C367.236 358.478 378.788 350.729 380.152 349.82C381.7 348.788 382.626 346.862 384.161 345.811C390.512 341.463 396.869 337.533 403.569 333.989C404.092 333.713 404.822 334.268 405.343 333.989C408.935 332.069 413.09 331.134 416.805 329.276C417.698 328.83 418.832 329.52 419.8 329.276C421.614 328.82 423.234 328.103 424.73 327.355C427.438 326 432.24 328.742 434.929 327.355C436.234 326.682 437.429 326.171 439.005 325.612C440.711 325.006 442.956 324.888 443.9 323.943C446.057 321.786 448.986 322.702 451.672 321.742C453.906 320.943 459.577 318.628 461.024 317.324C461.442 316.948 462.296 315.571 463.275 315.06C464.453 314.444 466.48 315.084 467.686 314.448C468.283 314.134 468.508 313.307 469.117 313.017C469.248 312.955 474.286 312.149 473.619 311.125C473.299 310.634 468.524 311.125 467.713 311.125C465.339 311.125 456.777 311.07 456.727 311.125C456.503 311.371 456.939 311.866 456.727 312.121C456.055 312.927 452.708 311.687 451.631 312.121C449.074 313.149 446.64 313.246 444.366 314.383C443.097 315.017 441.337 314.447 439.991 315.12C438.101 316.065 435.035 314.819 433.226 315.77C427.191 318.945 417.575 317.514 410.304 317.514C408.597 317.514 399.191 318.203 398.798 318.521C397.138 319.864 393.468 321.514 390.997 322.725C390.554 322.942 389.875 322.385 389.519 322.725C387.284 324.861 383.12 327.051 379.992 328.615C379.38 328.921 379.171 329.799 378.542 330.065C377.958 330.312 376.056 330.625 375.682 330.999C375.448 331.233 375.912 331.755 375.682 331.993C375.46 332.223 375.012 331.856 374.723 331.993C373.607 332.523 372.955 334.139 371.91 334.806C370.654 335.607 369.273 336.027 368.143 336.591C366.307 337.509 365.231 339.668 363.391 340.578C362.919 340.812 361.573 341.021 361.23 341.329C359.753 342.653 358.128 345.07 355.292 346.506C353.777 347.273 349.208 353.232 347.959 354.594C345.202 357.599 341.368 359.481 338.474 362.081C338.164 362.359 337.978 364.051 337.258 364.313C336.631 364.541 335.854 364.016 335.256 364.313C334.96 364.46 335.401 365.009 335.256 365.307C334.65 366.558 333.463 367.485 332.306 368.257C331.42 368.848 326.783 370.598 326.244 371.198C323.012 374.798 319.245 376.336 315.847 379.826C315.406 380.279 313.457 380.95 312.968 381.384C312.346 381.936 303.899 390.253 303.059 389.685C301.929 388.921 308.815 374.281 309.691 372.58C310.753 370.517 312.423 368.176 313.491 366.042C313.551 365.922 313.431 364.167 313.491 364.04C313.552 363.909 315.139 362.46 315.213 362.318C315.421 361.916 314.896 360.506 315.213 360.19C316.517 358.891 318.274 355.881 319.386 353.68C319.828 352.804 319.073 351.667 319.386 350.737C320.078 348.678 321.631 346.97 322.407 344.695C323.256 342.206 323.17 339.614 324.096 337.177C324.431 336.294 325.616 335.414 325.883 334.496C326.142 333.605 325.499 332.557 325.883 331.712C327.373 328.432 328.9 324.633 330.302 321.832C330.983 320.471 330.922 312.39 330.302 311.212C329.286 309.281 327.725 310.221 326.1 308.596C324.039 306.535 315.805 304.807 315.64 304.599C315.456 304.365 315.861 303.905 315.64 303.706C314.331 302.53 310.504 304.582 308.926 303.706C308.516 303.478 308.348 302.925 307.931 302.711C305.523 301.48 300.87 303.377 298.224 302.711C293.035 301.406 299.253 301.704 294.209 301.704C290.247 301.704 284.459 302.949 280.793 301.704C275.878 300.036 270.927 299.125 266.438 296.954C265.174 296.342 263.172 297.397 261.823 296.954C259.577 296.215 257.508 295.957 255.579 294.993C253.379 293.893 241.863 295.244 239.601 294.039C236.812 292.553 234.553 293.906 232.817 293.032C223.194 288.191 201.368 290.062 189.637 290.062C188.231 290.062 165.016 290.291 164.393 291.036C164.216 291.248 164.605 291.687 164.393 291.864C163.579 292.541 160.808 292.665 160.101 293.411C158.162 295.455 162.933 293.394 159.148 295.37C156.084 296.971 152.79 298.7 149.616 300.33C147.112 301.616 141.772 307.509 140.632 308.653C140.476 308.809 140.632 309.094 140.632 309.315C140.632 309.552 140.799 309.858 140.632 310.025C140.14 310.517 139.066 310.406 138.523 311.425C138.357 311.737 138.758 312.709 138.523 312.98C136.134 315.74 136.383 320.579 134.401 323.812C133.703 324.949 134.401 334.426 134.401 336.279C134.401 344.123 133.545 352.886 135.408 360.316C135.8 361.881 135.091 363.768 135.408 365.351C136.031 368.468 136.421 371.656 137.422 374.588C138.457 377.622 137.422 386.091 137.422 389.431C137.422 398.337 135.76 412.779 138.429 420.751C139.654 424.412 136.796 433.057 138.429 436.158C140.308 439.727 141.251 441.157 144.552 445.248Z" fill="black" fill-opacity="0.276758"/>
</g>
<g opacity="0.0889444" filter="url(#filter10_f_2007_117)">
<path d="M134.779 517.192C135.734 535.8 149.421 520.012 154.798 524.155C160.89 528.848 175.479 528.187 179.214 532.489C179.607 532.941 181.629 532.189 182.189 532.489C185.713 534.375 188.836 533.499 192.857 535.55C195.107 536.697 205.079 536.407 209.726 538.629C213.195 540.287 221.93 536.255 224.899 538.629C225.313 538.96 224.556 539.815 224.899 540.219C225.122 540.481 226.993 540.009 227.333 540.219C232.403 543.34 224.152 540.985 233.094 543.965C234.335 544.379 236.103 543.032 237.021 543.965C237.475 544.428 236.56 545.455 237.021 545.912C238.035 546.916 241.709 545.186 243 545.912C246.808 548.051 258.915 548.808 260.329 549.726C261.836 550.704 266.047 551.63 266.079 551.672C266.405 552.118 265.654 552.976 266.079 553.33C268.369 555.239 275.195 553.134 278.727 557.316C279.289 557.981 278.075 559.146 278.727 559.786C280.081 561.116 283.055 563.788 284.273 566.389C285.187 568.341 284.273 573.061 284.273 575.26C284.273 591.314 282.136 613.31 291.966 623.139C292.563 623.737 291.433 625.898 291.966 626.565C292.944 627.788 316.775 626.565 325.727 626.565C344.963 626.565 364.199 626.565 383.435 626.565C389.699 626.565 404.815 624.293 409.365 626.565C419.888 631.821 453.89 628.444 468.754 628.444C469.812 628.444 475.65 629.182 476.431 628.444C477.142 627.772 473.094 624.849 473.094 623.102C473.094 614.252 471.62 607.084 471.62 598.416C471.62 593.785 465.594 586.361 462.061 583.746C461.881 583.612 462.061 581.699 462.061 581.39C462.061 577.398 460.26 568.057 462.061 564.663C464.384 560.284 465.234 548.267 467.372 543.898C471.005 536.477 474.545 529.082 477.84 521.513C479.31 518.137 478.366 512.51 479.854 509.534C484.731 499.78 478.634 518.638 483.816 503.624C484.51 501.613 482.867 498.433 483.816 496.55C485.474 493.259 484.889 491.124 485.792 489.394C489.744 481.823 485.349 492.832 489.377 485.58C490.435 483.675 489.977 475.11 491.834 473.501C498.297 467.904 504.792 459.089 511.043 453.335C511.519 452.897 512.056 449.684 512.541 449.136C517.993 442.975 525.652 435.295 528.522 430.785C529.036 429.977 527.778 426.283 528.522 425.739C528.992 425.395 529.847 426.14 530.27 425.739C531.555 424.523 529.355 419.616 530.27 418.01C531.782 415.359 532.085 412.151 533.353 409.395C539.083 396.944 545.027 387.209 551.83 374.433C552.806 372.6 550.861 369.217 551.83 367.379C555.248 360.892 553.107 354.273 556.642 347.765C557.415 346.342 555.306 338.518 556.642 337.466C557.17 337.051 558.178 337.938 558.656 337.466C558.945 337.18 558.436 334.46 558.656 333.963C559.651 331.718 561.428 329.982 562.453 327.71C562.684 327.198 562.154 324.452 562.453 324.137C562.891 323.675 563.871 324.54 564.364 324.137C564.614 323.933 564.685 316.148 564.364 315.716C564.122 315.39 556.719 315.637 556.642 315.716C556.189 316.18 557.092 317.195 556.642 317.663C556.126 318.2 553.136 317.416 552.311 317.663C550.565 318.185 548.968 319.191 547.183 319.561C545.807 319.847 538.858 318.525 537.514 319.561C537.126 319.86 537.849 320.673 537.514 321.029C536.355 322.258 531.076 320.229 529.523 321.029C528.679 321.463 528.41 322.743 527.509 323.043C523.655 324.327 515.273 323.043 511.399 323.043C493.29 323.043 459.137 320.125 445.892 327.614C442.969 329.266 428.04 328.467 425.898 330.258C425.514 330.579 426.279 331.434 425.898 331.758C425.098 332.437 423.423 330.953 422.75 331.758C422.012 332.64 423.049 335.822 421.894 336.712C417.907 339.783 413.868 346.281 409.835 349.991C408.614 351.114 400.051 354.243 397.38 355.737C394.19 357.52 391.787 361.124 390.023 363.133C389.434 363.803 386.487 364.251 385.581 364.691C383.688 365.61 380.953 370.862 378.021 372.369C374.217 374.324 369.95 376.113 366.116 378.072C361.921 377.43 365.445 381.282 364.169 381.986C361.691 383.353 357.441 381.63 355.899 383.604C355.49 384.127 356.17 384.988 355.899 385.594C354.866 387.902 351.599 388.145 350.526 389.218C348.096 391.649 349.563 393.702 346.499 395.234C344.408 396.279 337.868 397.841 336.429 399.262C332.621 403.023 341.846 399.598 334.602 403.078C332.397 404.137 328.637 405.066 326.584 407.105C325.365 408.317 325.762 411.263 323.188 412.492C320.738 413.663 318.336 414.699 315.86 416.016C314.666 416.651 312.551 415.455 311.316 416.016C305.653 418.59 300.423 423.944 295.27 427.38C293.927 428.051 292.585 428.722 291.242 429.394C290.571 429.394 289.829 429.095 289.228 429.394C280.288 433.836 275.503 448.213 265.378 453.224C257.733 457.008 253.123 463.225 246.016 466.875C242.057 468.909 239.845 474.258 236.125 476.766C229.411 481.293 223.159 483.654 216.085 487.168C214.664 487.874 212.045 486.396 210.662 487.168C209.844 487.625 209.513 488.74 208.674 489.157C202.551 492.199 154.003 486.679 151.41 489.157C149.934 490.568 147.206 490.829 144.532 492.012C143.188 492.606 142.765 494.548 141.415 495.129C140.798 495.394 139.876 494.655 139.401 495.129C138.34 496.191 138.325 497.985 137.387 499.157C129.034 509.598 126.944 502.837 134.779 517.192Z" fill="black"/>
</g>
<g opacity="0.286935" filter="url(#filter11_f_2007_117)">
<path d="M344.146 312.542C340.578 317.902 338.435 321.801 335.438 324.663C335.067 325.018 334.734 327.312 334.399 327.678C333.925 328.195 332.144 329.101 331.553 330.406C330.448 332.847 331.993 336.439 330.812 338.884C329.786 341.011 328.159 343.414 326.974 344.6C326.223 345.351 325.657 348.787 325.095 349.465C324.13 350.631 326.212 355.085 325.095 356.056C324.812 356.302 323.174 356.59 324.158 357.927C324.854 358.873 331.371 357.374 331.919 357.1C337.39 354.368 338.654 346.615 342.165 342.67C342.422 342.382 343.493 342.223 343.729 341.921C344.015 341.556 344.271 339.521 344.61 339.223C345.836 338.143 348.432 337.286 349.473 335.337C349.668 334.973 349.175 334.384 349.473 334.097C349.782 333.799 350.457 334.4 350.76 334.097C351.063 333.794 350.485 333.14 350.76 332.811C351.862 331.489 353.843 330.281 355.046 328.879C355.423 328.441 357.558 328.57 357.823 328.146C358.005 327.855 357.556 327.332 357.823 327.119C358.384 326.672 361.363 326.583 361.836 326.12C362.77 325.208 363.096 323.627 364.024 322.704C364.516 322.213 365.655 323.23 366.109 322.704C366.743 321.969 368.045 320.646 368.758 319.946C369.924 318.804 379.115 317.636 379.756 316.777C380.385 315.933 380.242 315.337 380.923 314.627C381.381 314.15 383.172 315.022 383.72 314.627C385.859 313.084 393.416 313.238 393.746 312.799C394.029 312.425 393.415 311.723 393.746 311.392C394.151 310.987 402.867 310.279 403.988 309.589C404.388 309.343 403.695 308.548 403.988 308.182C404.267 307.835 412.822 305.378 414.23 304.748C415.242 304.295 417.084 305.3 418.037 304.748C424.772 300.85 432.644 299.898 440.749 298.277C446.009 297.225 452.709 299.968 457.76 298.277C458.397 298.064 458.584 297.153 459.184 296.853C461.418 295.736 466.471 296.853 469.117 296.853C472.684 296.853 478.128 297.738 481.671 296.853C484.898 296.046 486.526 295.429 489.884 295.429C490.023 295.429 499.201 296.025 499.585 295.429C499.817 295.068 499.31 294.471 499.585 294.143C500.126 293.496 510.125 293.157 511.363 292.472C513.469 291.307 515.183 289.945 517.32 288.897C518.783 288.18 520.981 289.158 522.467 288.361C524.396 287.327 524.469 285.488 526.076 284.685C531.987 281.732 534.525 276.217 539.958 273.75C541.316 273.133 542.568 270.94 543.087 269.891C544.725 266.576 542.436 253.836 544.188 251.292C545.366 249.581 547.982 236.648 546.349 233.729C545.256 231.775 528.473 230.383 525.345 230.383C523.897 230.383 519.094 225.703 517.426 227.297C517.186 227.526 517.426 229.543 517.426 229.844C517.426 240.575 521.399 236.204 525.249 243.408C525.823 244.482 526.506 276.583 526.475 276.627C525.926 277.406 516.905 276.013 514.907 277.584C511.32 280.406 511.287 281.613 506.524 284.023C505.066 284.761 504.902 286.988 503.788 287.493C500.235 289.104 494.561 286.827 491.125 288.535C484.755 291.7 453.698 289.769 445.535 289.769C437.616 289.769 430.448 290.743 422.303 290.743C422.058 290.743 420.149 290.555 420 290.743C419.478 291.404 418.263 292.039 416.733 291.551C412.104 290.075 412.526 289.609 407.093 288.703C406.617 288.624 402.515 289.201 401.661 288.703C393.41 283.895 375.258 282.099 365.813 286.54C365.09 286.88 360.427 287.536 360.135 287.946C358.516 290.221 354.622 292.204 352.72 295.101C351.904 296.343 352.347 298.276 351.296 299.327C350.961 299.662 350.232 299.017 349.872 299.327C349.75 299.432 344.175 312.475 344.146 312.542Z" fill="white"/>
</g>
<g opacity="0.045" filter="url(#filter12_f_2007_117)">
<path d="M330.143 317.481C327.837 317.352 323.267 319.231 320.63 318.302C320.188 318.146 319.777 315.549 319.519 315.318C319.268 315.095 318.848 315.318 318.512 315.318C317.852 315.016 317.062 314.907 316.533 314.41C315.773 313.696 316.077 312.779 314.545 312.072C312.308 311.041 308.766 312.964 306.462 312.072C304.391 311.271 304.237 311.065 301.775 311.065C296.154 311.065 287.354 312.537 282.72 310.058C281.107 309.196 278.11 310.922 276.498 310.058C275.334 309.435 274.242 309.815 273.15 309.28C272.182 308.806 271.642 308.069 270.704 307.57C269.874 307.129 266.23 307.395 265.714 306.882C265.328 306.499 259.778 303.318 259.27 303.093C257.155 302.152 260.231 304.379 257.548 303.093C255.673 302.193 253.586 301.111 251.796 300.222C251.695 300.172 249.78 300.38 249.684 300.222C249.532 299.972 249.905 299.536 249.684 299.343C249.196 298.918 247.717 299.731 247.192 299.343C246.232 298.635 246.501 295.362 246.501 294.212C246.501 292.927 245.879 288.897 246.501 287.608C247.039 286.494 250.608 286.824 251.901 285.964C253.149 285.135 255.759 284.084 257.475 283.177C257.943 282.929 258.689 283.551 259.063 283.177C259.941 282.299 259.188 282.325 261.68 281.478C266.504 279.839 272.42 282.743 276.965 280.471C278.093 279.907 285.346 280.468 286.061 279.521C286.797 278.546 286.704 279.45 287.939 278.877C289.77 278.026 288.12 276.947 289.886 276.064C291.848 275.083 293.662 274.639 295.486 273.672C296.113 273.34 296.21 272.297 296.88 272.065C297.515 271.846 298.243 272.228 298.894 272.065C302.197 271.24 303.007 269.11 305.496 267.43C306.319 266.874 307.59 267.117 308.299 266.423C308.495 266.23 308.086 265.772 308.299 265.598C309.214 264.848 312.35 264.434 313.276 263.584C313.49 263.387 313.077 262.924 313.276 262.712C314.483 261.427 333.703 263.1 336.413 263.1C338.156 263.1 349.925 262.328 351.036 263.1C351.343 263.312 351.758 265.843 352.033 266.127C353.304 267.442 352.368 264.051 353.953 266.519C354.412 267.233 353.482 268.805 353.953 269.515C354.137 269.792 354.684 269.315 354.949 269.515C355.031 269.578 354.878 270.791 354.949 270.911C356.098 272.857 357.005 274.439 357.824 276.775C357.893 276.972 358.207 281.527 357.824 281.803C357.552 282 357.056 281.567 356.817 281.803C356.182 282.431 357.24 284.738 356.817 285.584C356.721 285.778 352.029 289.095 351.137 289.987C346.307 294.817 343.063 299.195 338.809 303.819C338.394 304.27 337.133 304.249 336.706 305.231C336.174 306.451 335.494 307.713 335.019 309.055C334.9 309.394 335.298 311.406 335.019 311.637C334.765 311.849 334.287 311.434 334.025 311.637C333.442 311.749 334.333 312.573 334.025 312.817C333.891 312.924 333.683 312.817 333.511 312.817C332.389 314.372 331.266 315.927 330.143 317.481Z" fill="black"/>
</g>
<g opacity="0.064" filter="url(#filter13_f_2007_117)">
<path d="M397.777 358.132C425.481 358.132 396.924 356.559 413.444 360.689C417.704 361.754 484.969 361.328 486.246 360.689C490.64 358.492 494.602 357.806 498.999 355.607C499.494 355.36 503.57 355.851 504.08 355.607C508.802 353.348 514.903 350.282 519.034 347.232C521.888 345.125 524.108 334.397 527.597 333.435C529.56 332.894 525.742 337.073 525.04 338.985C523.52 343.122 522.601 347.735 519.926 351.77C519.808 351.948 514.961 356.672 514.897 356.799C513.356 359.83 512.67 368.441 509.93 371.182C508.589 372.523 506.189 372.398 504.848 373.739C504.252 374.334 505.224 375.511 504.848 376.264C502.772 380.415 497.348 386.149 494.684 391.478C493.12 394.605 491.251 393.379 489.685 396.476C487.021 401.746 485.794 408.568 482.014 414.238C479.326 418.27 476.717 419.719 474.375 424.402C464.791 443.57 455.717 461.6 446.344 480.464C445.345 482.474 447.061 485.928 446.344 488.071C438.865 510.414 446.105 534.042 451.426 555.259C451.426 555.259 451.426 565.422 451.426 565.422C451.955 568.055 453.328 570.457 453.983 573.061C454.513 575.17 453.02 578.742 453.983 580.668C454.515 581.733 456.131 582.064 456.508 583.193C457.815 587.116 463.049 629.767 461.454 632.595C459.762 635.593 428.663 632.595 422.733 632.595C383.179 632.595 343.626 632.595 304.073 632.595C300.386 632.595 290.772 630.889 287.628 632.595C286 633.478 281.922 637.034 279.295 634.96C277.455 633.508 281.44 575.648 275.298 567.967C274.555 567.038 266.462 567.967 264.514 567.967C255.083 567.967 246.582 566.874 238.81 562.987C234.307 560.736 220.538 563.752 215.469 562.987C206.056 561.567 196.686 558.489 187.996 555.402C185.362 554.466 180.942 556.771 178.553 555.402C177.813 554.978 179.114 553.486 178.553 552.845C177.523 551.666 172.214 553.627 170.782 552.845C169.737 552.274 169.317 550.859 168.256 550.319C165.395 548.862 160.395 551.717 157.501 550.319C155.776 549.486 150.431 546.565 149.409 545.645C146.982 543.46 143.825 536.751 141.658 534.34C139.906 532.391 135.428 529.744 133.607 527.969C128.297 522.791 140.045 503.797 143.151 502.162C145.843 500.746 148.833 496.352 152.734 494.468C153.43 494.132 154.28 494.468 155.053 494.468C155.905 494.468 156.844 494.841 157.61 494.468C160.48 493.072 162.141 490.924 165.009 489.49C169.103 487.443 175.728 488.017 181.432 484.806C189.395 480.323 214.266 489.116 222.728 484.806C225.85 483.216 228.081 482.063 231.262 480.379C233.562 479.161 237.359 479.685 239.575 478.511C241.935 477.261 253.656 471.999 254.786 470.922C260.426 465.547 246.265 471.619 257.096 465.928C262.61 463.031 269.251 459.54 274.963 455.732C277.939 453.748 279.587 450.146 282.551 448.144C283.219 447.693 284.416 448.73 284.97 448.144C285.556 447.525 284.589 446.349 284.97 445.587C285.764 443.999 326.771 409.265 330.678 407.312C333.16 406.07 335.639 403.56 338.317 402.229C339.834 401.476 342.201 403.427 343.399 402.229C348.705 396.923 335.205 402.557 345.956 397.147C346.708 396.769 347.886 397.743 348.481 397.147C349.076 396.552 347.882 395.214 348.481 394.622C349.253 393.861 366.59 385.301 368.471 384.519C372.494 382.846 378.799 376.053 380.855 374C381.639 373.216 386.628 372.749 387.134 372.129C387.408 371.792 387.134 371.261 387.134 370.827C390.682 366.596 394.229 362.364 397.777 358.132Z" fill="black"/>
</g>
<g opacity="0.212025" filter="url(#filter14_f_2007_117)">
<path d="M336.363 346.49C337.877 347.204 339.969 345.951 341.037 343.691C342.104 341.431 341.742 339.019 340.228 338.304C338.714 337.589 336.622 338.843 335.555 341.103C334.488 343.363 334.85 345.775 336.363 346.49Z" fill="black"/>
</g>
<g opacity="0.104226" filter="url(#filter15_f_2007_117)">
<path d="M400.49 308.651C400 310.252 397.666 310.957 395.275 310.227C392.885 309.496 391.344 307.606 391.833 306.005C392.322 304.405 394.657 303.699 397.047 304.43C399.438 305.16 400.979 307.05 400.49 308.651Z" fill="black"/>
</g>
<g opacity="0.012" filter="url(#filter16_f_2007_117)">
<path d="M285.507 561.009C303.653 565.395 305.766 565.253 319.477 558.397C322.038 557.117 329.269 556.635 331.468 554.437C331.936 553.968 330.891 552.774 331.468 552.448C332.488 551.871 333.883 552.849 334.984 552.448C335.185 552.375 345.82 543.981 348.433 542.545C351.632 540.788 352.307 533.32 356.928 532.061C358.175 531.722 359.659 532.657 360.806 532.061C361.036 531.942 362.289 528.539 362.624 528.229C368.715 522.592 361.645 531.695 365.798 528.229C366.869 527.334 370.116 525.576 371.114 524.555C371.491 524.168 374.341 525.01 374.549 524.555C374.796 524.011 374.103 523.16 374.549 522.762C380.218 517.717 392.647 533.437 393.692 537.618C394.507 540.875 392.631 544.504 393.692 547.688C394.618 550.464 397.005 552.226 397.695 555.693C398.085 557.652 397.059 559.791 397.695 561.684C397.909 562.321 399.407 561.085 399.709 561.684C401.518 565.28 397.909 571.594 399.709 575.194C401.757 579.29 402.072 583.679 403.644 588.43C404.83 592.013 402.442 596.784 403.644 600.361C403.947 601.261 405.231 601.527 405.658 602.375C407.653 606.339 405.956 624.323 403.249 627.03C402.78 627.499 401.726 626.558 401.26 627.03C399.711 628.598 398.98 632.947 397.945 634.267C397.265 635.135 382.863 634.267 380.634 634.267C353.657 634.267 326.68 634.267 299.703 634.267C294.565 634.267 281.982 636.797 277.618 634.267C275.435 633.001 279.632 620.902 279.632 619.332C279.632 599.727 277.958 579.292 281.622 559.995" fill="black"/>
</g>
<g opacity="0.266854" filter="url(#filter17_f_2007_117)">
<path d="M155.014 283.811C154.539 284.931 152.47 286.696 153.59 287.171C154.71 287.645 153.887 284.27 155.014 283.811C156.59 283.17 158.374 284.369 160.067 284.535C160.655 284.592 170.661 276.198 172.563 275.128C178.207 271.954 193.627 268.914 199.944 269.676C205.536 270.35 211.707 273.155 216.713 275.619C219.853 277.165 222.434 279.065 225.947 279.806C231.519 280.981 237.933 278.07 242.945 275.955C249.269 273.287 254.77 268.921 260.541 265.257C266.026 261.773 271.911 258.949 277.493 255.644C280.976 253.581 284.165 251.079 287.738 249.157C295.045 245.225 303.025 242.574 310.249 238.51C315.464 235.577 319.817 231.48 324.95 228.432C328.871 226.104 338.653 220.687 340.937 216.648C343.031 212.947 343.022 207.378 343.786 203.081C344.791 197.429 346.04 191.708 348.472 186.465C349.964 183.248 351.912 180.458 353.112 177.084C354.503 173.171 358.87 171.538 360.554 168.066C361.043 167.057 360.183 165.662 359.084 165.662C351.559 165.662 341.812 178.093 340.937 184.734C340.146 190.742 341.719 205.029 337.17 209.464C333.27 213.267 327.866 216.305 323.48 219.594C315.724 225.411 308.617 231.596 300.142 236.546C290.047 242.443 279.312 247.181 269.407 253.421C260.838 258.82 253.321 266.116 244.186 270.684C242.524 271.514 239.106 273.159 237.294 273.216C234.855 273.292 232.652 271.518 230.449 270.761C228.204 269.989 225.762 269.819 223.42 269.572C220.374 269.251 217.205 269.926 214.14 269.753C206.214 269.307 198.478 266.886 190.434 267.091C186.489 267.192 183.451 269.465 179.73 270.27C177.294 270.797 174.687 270.713 172.288 271.433C164.956 273.632 159.64 277.936 155.014 283.811Z" fill="white"/>
</g>
<g opacity="0.0230708" filter="url(#filter18_f_2007_117)">
<path d="M382.039 200.108C381.725 200.87 380.336 202.078 381.097 202.392C381.859 202.706 382.209 199.302 382.039 200.108C381.773 201.372 381.199 202.551 380.805 203.781C380.496 204.745 381.303 206.191 381.227 207.216C381.07 209.34 380.378 211.102 380.61 213.32C380.868 215.786 382.238 217.411 382.982 219.642C384.838 225.211 386.977 230.498 389.641 235.795C391.394 239.282 393.82 242.584 395.391 246.12C396.635 248.919 397.93 251.431 399.581 254.032C402.175 258.116 403.358 261.849 407.345 264.813C412.807 268.872 419.06 273.095 425.537 275.356C430.3 277.019 435.471 277.226 440.383 278.207C443.241 278.777 446.072 279.54 448.927 280.144C462.783 283.077 475.777 285.783 490.053 284.804C492.704 284.622 495.418 284.649 498.012 283.981C501.065 283.195 503.954 281.688 506.913 280.601C514.033 277.985 525.539 276.222 528.775 268.212C529.385 266.703 528.973 258.241 527.638 257.559C527.184 257.326 523.653 264.289 522.993 265.142C521.758 266.739 520.129 267.909 518.705 269.326C513.473 274.533 515.298 274.661 507.173 276.946C499.443 279.12 488.692 280.814 480.697 280.564C477.298 280.458 473.88 279.77 470.497 279.413C463.965 278.724 457.573 278.224 451.136 276.946C445.164 275.761 439.309 275.835 433.594 273.566C431.305 272.657 429.181 271.34 426.869 270.459C423.102 269.024 419.02 268.244 415.629 265.928C411.648 263.208 409.557 259.429 406.501 255.859C403.827 252.735 400.558 249.822 398.185 246.485C397.022 244.851 396.477 242.508 395.586 240.711C394.357 238.233 392.724 236.03 391.688 233.438C389.719 228.516 388.66 223.017 387.887 217.797C387.466 214.957 387.37 211.891 386.457 209.153C383.957 201.651 383.586 200.37 387.4 193.457C388.338 191.755 389.142 190.007 390.388 188.505C390.563 188.294 391.971 186.729 391.947 186.714C390.9 186.066 389.052 187.147 388.082 187.5C384.345 188.86 381.858 191.907 380.87 195.686C380.76 196.107 380.396 197.016 380.61 197.44C381.065 198.341 381.904 199.109 382.039 200.108C383.675 212.164 380.626 201.199 381.845 205.389Z" fill="#243F17"/>
</g>
</g>
<defs>
<filter id="filter0_f_2007_117" x="-29.9191" y="4.44672" width="753.463" height="784.279" filterUnits="userSpaceOnUse" color-interpolation-filters="sRGB">
<feFlood flood-opacity="0" result="BackgroundImageFix"/>
<feBlend mode="normal" in="SourceGraphic" in2="BackgroundImageFix" result="shape"/>
<feGaussianBlur stdDeviation="78.6897" result="effect1_foregroundBlur_2007_117"/>
</filter>
<filter id="filter1_f_2007_117" x="129.653" y="305.718" width="136.461" height="158.057" filterUnits="userSpaceOnUse" color-interpolation-filters="sRGB">
<feFlood flood-opacity="0" result="BackgroundImageFix"/>
<feBlend mode="normal" in="SourceGraphic" in2="BackgroundImageFix" result="shape"/>
<feGaussianBlur stdDeviation="1.22389" result="effect1_foregroundBlur_2007_117"/>
</filter>
<filter id="filter2_f_2007_117" x="380.596" y="170.601" width="145.416" height="115.816" filterUnits="userSpaceOnUse" color-interpolation-filters="sRGB">
<feFlood flood-opacity="0" result="BackgroundImageFix"/>
<feBlend mode="normal" in="SourceGraphic" in2="BackgroundImageFix" result="shape"/>
<feGaussianBlur stdDeviation="1.77473" result="effect1_foregroundBlur_2007_117"/>
</filter>
<filter id="filter3_f_2007_117" x="134.518" y="142.032" width="427.346" height="171.944" filterUnits="userSpaceOnUse" color-interpolation-filters="sRGB">
<feFlood flood-opacity="0" result="BackgroundImageFix"/>
<feBlend mode="normal" in="SourceGraphic" in2="BackgroundImageFix" result="shape"/>
<feGaussianBlur stdDeviation="10.6243" result="effect1_foregroundBlur_2007_117"/>
</filter>
<filter id="filter4_f_2007_117" x="177.226" y="297.066" width="64.2396" height="64.6986" filterUnits="userSpaceOnUse" color-interpolation-filters="sRGB">
<feFlood flood-opacity="0" result="BackgroundImageFix"/>
<feBlend mode="normal" in="SourceGraphic" in2="BackgroundImageFix" result="shape"/>
<feGaussianBlur stdDeviation="8.5739" result="effect1_foregroundBlur_2007_117"/>
</filter>
<filter id="filter5_f_2007_117" x="404.27" y="176.957" width="54.3505" height="48.4526" filterUnits="userSpaceOnUse" color-interpolation-filters="sRGB">
<feFlood flood-opacity="0" result="BackgroundImageFix"/>
<feBlend mode="normal" in="SourceGraphic" in2="BackgroundImageFix" result="shape"/>
<feGaussianBlur stdDeviation="5.68416" result="effect1_foregroundBlur_2007_117"/>
</filter>
<filter id="filter6_f_2007_117" x="130.33" y="236.387" width="434.613" height="282.318" filterUnits="userSpaceOnUse" color-interpolation-filters="sRGB">
<feFlood flood-opacity="0" result="BackgroundImageFix"/>
<feBlend mode="normal" in="SourceGraphic" in2="BackgroundImageFix" result="shape"/>
<feGaussianBlur stdDeviation="0.756419" result="effect1_foregroundBlur_2007_117"/>
</filter>
<filter id="filter7_f_2007_117" x="128.334" y="232.875" width="442.813" height="400.97" filterUnits="userSpaceOnUse" color-interpolation-filters="sRGB">
<feFlood flood-opacity="0" result="BackgroundImageFix"/>
<feBlend mode="normal" in="SourceGraphic" in2="BackgroundImageFix" result="shape"/>
<feGaussianBlur stdDeviation="1.24882" result="effect1_foregroundBlur_2007_117"/>
</filter>
<filter id="filter8_f_2007_117" x="126.711" y="249.088" width="423.17" height="260.924" filterUnits="userSpaceOnUse" color-interpolation-filters="sRGB">
<feFlood flood-opacity="0" result="BackgroundImageFix"/>
<feBlend mode="normal" in="SourceGraphic" in2="BackgroundImageFix" result="shape"/>
<feGaussianBlur stdDeviation="1.47994" result="effect1_foregroundBlur_2007_117"/>
</filter>
<filter id="filter9_f_2007_117" x="107.529" y="274.328" width="381.529" height="243.557" filterUnits="userSpaceOnUse" color-interpolation-filters="sRGB">
<feFlood flood-opacity="0" result="BackgroundImageFix"/>
<feBlend mode="normal" in="SourceGraphic" in2="BackgroundImageFix" result="shape"/>
<feGaussianBlur stdDeviation="7.68915" result="effect1_foregroundBlur_2007_117"/>
</filter>
<filter id="filter10_f_2007_117" x="97.3806" y="283.046" width="499.704" height="378.971" filterUnits="userSpaceOnUse" color-interpolation-filters="sRGB">
<feFlood flood-opacity="0" result="BackgroundImageFix"/>
<feBlend mode="normal" in="SourceGraphic" in2="BackgroundImageFix" result="shape"/>
<feGaussianBlur stdDeviation="16.2527" result="effect1_foregroundBlur_2007_117"/>
</filter>
<filter id="filter11_f_2007_117" x="316.489" y="219.608" width="237.739" height="145.986" filterUnits="userSpaceOnUse" color-interpolation-filters="sRGB">
<feFlood flood-opacity="0" result="BackgroundImageFix"/>
<feBlend mode="normal" in="SourceGraphic" in2="BackgroundImageFix" result="shape"/>
<feGaussianBlur stdDeviation="3.67873" result="effect1_foregroundBlur_2007_117"/>
</filter>
<filter id="filter12_f_2007_117" x="232.64" y="248.642" width="138.955" height="83.5033" filterUnits="userSpaceOnUse" color-interpolation-filters="sRGB">
<feFlood flood-opacity="0" result="BackgroundImageFix"/>
<feBlend mode="normal" in="SourceGraphic" in2="BackgroundImageFix" result="shape"/>
<feGaussianBlur stdDeviation="6.79224" result="effect1_foregroundBlur_2007_117"/>
</filter>
<filter id="filter13_f_2007_117" x="73.2213" y="274.361" width="513.957" height="420.265" filterUnits="userSpaceOnUse" color-interpolation-filters="sRGB">
<feFlood flood-opacity="0" result="BackgroundImageFix"/>
<feBlend mode="normal" in="SourceGraphic" in2="BackgroundImageFix" result="shape"/>
<feGaussianBlur stdDeviation="29.5132" result="effect1_foregroundBlur_2007_117"/>
</filter>
<filter id="filter14_f_2007_117" x="332.887" y="336.049" width="10.8169" height="12.6967" filterUnits="userSpaceOnUse" color-interpolation-filters="sRGB">
<feFlood flood-opacity="0" result="BackgroundImageFix"/>
<feBlend mode="normal" in="SourceGraphic" in2="BackgroundImageFix" result="shape"/>
<feGaussianBlur stdDeviation="1.02735" result="effect1_foregroundBlur_2007_117"/>
</filter>
<filter id="filter15_f_2007_117" x="390.021" y="302.42" width="12.2802" height="9.81601" filterUnits="userSpaceOnUse" color-interpolation-filters="sRGB">
<feFlood flood-opacity="0" result="BackgroundImageFix"/>
<feBlend mode="normal" in="SourceGraphic" in2="BackgroundImageFix" result="shape"/>
<feGaussianBlur stdDeviation="0.860557" result="effect1_foregroundBlur_2007_117"/>
</filter>
<filter id="filter16_f_2007_117" x="260.792" y="505.579" width="161.933" height="146.009" filterUnits="userSpaceOnUse" color-interpolation-filters="sRGB">
<feFlood flood-opacity="0" result="BackgroundImageFix"/>
<feBlend mode="normal" in="SourceGraphic" in2="BackgroundImageFix" result="shape"/>
<feGaussianBlur stdDeviation="8.09806" result="effect1_foregroundBlur_2007_117"/>
</filter>
<filter id="filter17_f_2007_117" x="151.685" y="164.086" width="210.586" height="124.707" filterUnits="userSpaceOnUse" color-interpolation-filters="sRGB">
<feFlood flood-opacity="0" result="BackgroundImageFix"/>
<feBlend mode="normal" in="SourceGraphic" in2="BackgroundImageFix" result="shape"/>
<feGaussianBlur stdDeviation="0.788196" result="effect1_foregroundBlur_2007_117"/>
</filter>
<filter id="filter18_f_2007_117" x="372.142" y="178.109" width="165.311" height="115.3" filterUnits="userSpaceOnUse" color-interpolation-filters="sRGB">
<feFlood flood-opacity="0" result="BackgroundImageFix"/>
<feBlend mode="normal" in="SourceGraphic" in2="BackgroundImageFix" result="shape"/>
<feGaussianBlur stdDeviation="4.20096" result="effect1_foregroundBlur_2007_117"/>
</filter>
<linearGradient id="paint0_linear_2007_117" x1="315.625" y1="-2.10486e-05" x2="315.625" y2="631.25" gradientUnits="userSpaceOnUse">
<stop stop-color="#015809"/>
<stop offset="1" stop-color="#3DA806"/>
</linearGradient>
<linearGradient id="paint1_linear_2007_117" x1="283.664" y1="631.347" x2="340.377" y2="189.18" gradientUnits="userSpaceOnUse">
<stop stop-color="#7EF900"/>
<stop offset="0.709507" stop-color="#ADFB43"/>
<stop offset="1" stop-color="#D4FB91"/>
</linearGradient>
<linearGradient id="paint2_linear_2007_117" x1="283.664" y1="631.347" x2="340.377" y2="189.18" gradientUnits="userSpaceOnUse">
<stop stop-color="#7EF900"/>
<stop offset="0.709507" stop-color="#ADFB43"/>
<stop offset="1" stop-color="#D4FB91"/>
</linearGradient>
<linearGradient id="paint3_linear_2007_117" x1="272.413" y1="415.926" x2="151.954" y2="371.07" gradientUnits="userSpaceOnUse">
<stop stop-color="#6BD602"/>
<stop offset="1" stop-color="#E7E7E7" stop-opacity="0.449877"/>
</linearGradient>
<linearGradient id="paint4_linear_2007_117" x1="263.075" y1="395.945" x2="147.145" y2="334.429" gradientUnits="userSpaceOnUse">
<stop stop-color="#DCDCDC"/>
<stop offset="0.478752" stop-color="white"/>
<stop offset="1" stop-color="white"/>
</linearGradient>
<linearGradient id="paint5_linear_2007_117" x1="360.059" y1="230.075" x2="527.642" y2="173.901" gradientUnits="userSpaceOnUse">
<stop stop-color="#5BB502"/>
<stop offset="1" stop-color="#E8E8E8" stop-opacity="0.547847"/>
</linearGradient>
<linearGradient id="paint6_linear_2007_117" x1="426.949" y1="262.463" x2="476.184" y2="170.775" gradientUnits="userSpaceOnUse">
<stop stop-color="#D7D7D7"/>
<stop offset="0.410668" stop-color="white"/>
<stop offset="1" stop-color="white"/>
</linearGradient>
<linearGradient id="paint7_linear_2007_117" x1="148.112" y1="352.47" x2="260.036" y2="352.47" gradientUnits="userSpaceOnUse">
<stop stop-color="#5BB502"/>
<stop offset="0.243929" stop-color="#5BB502"/>
<stop offset="1" stop-color="#92FD22"/>
</linearGradient>
<linearGradient id="paint8_linear_2007_117" x1="492.493" y1="175.853" x2="177.817" y2="407.421" gradientUnits="userSpaceOnUse">
<stop stop-color="#5BB502"/>
<stop offset="0.408213" stop-color="#5BB502"/>
<stop offset="1" stop-color="#90FB21"/>
</linearGradient>
<linearGradient id="paint9_linear_2007_117" x1="559.064" y1="238.504" x2="127.46" y2="631.347" gradientUnits="userSpaceOnUse">
<stop stop-color="white"/>
<stop offset="1" stop-color="white" stop-opacity="0.585569"/>
</linearGradient>
<linearGradient id="paint10_linear_2007_117" x1="560.075" y1="241.03" x2="128.47" y2="633.873" gradientUnits="userSpaceOnUse">
<stop stop-color="white"/>
<stop offset="1" stop-color="white" stop-opacity="0.111878"/>
</linearGradient>
<linearGradient id="paint11_linear_2007_117" x1="559.064" y1="238.504" x2="127.46" y2="631.347" gradientUnits="userSpaceOnUse">
<stop stop-color="white"/>
<stop offset="1" stop-color="white" stop-opacity="0.585569"/>
</linearGradient>
<linearGradient id="paint12_linear_2007_117" x1="285.85" y1="644.079" x2="342.563" y2="201.913" gradientUnits="userSpaceOnUse">
<stop stop-color="#6ED800"/>
<stop offset="0.709507" stop-color="#9EFB21"/>
<stop offset="1" stop-color="#C5FA68"/>
</linearGradient>
<clipPath id="clip0_2007_117">
<rect width="631" height="630" fill="white"/>
</clipPath>
</defs>
</svg>
